<svg xmlns="http://www.w3.org/2000/svg" xmlns:xlink="http://www.w3.org/1999/xlink" width="1556.422" height="900" viewBox="0 0 1556.422 900">
  <defs>
    <clipPath id="clip-hack-logo-1556x900-purple-transparent-background_">
      <rect width="1556.422" height="900"/>
    </clipPath>
  </defs>
  <g id="hack-logo-1556x900-purple-transparent-background_" data-name="hack-logo-1556x900-purple-transparent-background " clip-path="url(#clip-hack-logo-1556x900-purple-transparent-background_)">
    <rect width="1556.422" height="900" fill="rgba(255,255,255,0)"/>
    <g id="Group_128" data-name="Group 128" transform="translate(145.355 147.546)">
      <g id="Hhack" transform="translate(0)">
        <path id="Path_151" data-name="Path 151" d="M-76.855,248.218V-59.491l38.471-6.344V41.115A109.317,109.317,0,0,1-17.526,35.45,130.9,130.9,0,0,1,5.187,33.411q24.566,0,41.021,7.024T72.4,60.149Q82.129,72.838,86.3,90.512a169.725,169.725,0,0,1,4.172,38.973V248.218H52.465V137.642q0-38.973-11.124-55.061T1.478,66.493a108.872,108.872,0,0,0-23.407,2.492q-11.356,2.492-16.455,4.758V248.218ZM203.106,221.48q14.369,0,25.725-.906t18.772-2.266V155.769a110.961,110.961,0,0,0-17.845-3.625,170.41,170.41,0,0,0-22.017-1.359,135.525,135.525,0,0,0-20.858,1.586,58.718,58.718,0,0,0-18.077,5.665,38.631,38.631,0,0,0-12.978,10.65q-5.1,6.571-5.1,16.541,0,20.393,14.137,28.324T203.106,221.48ZM199.4,32.958q24.1,0,40.557,5.891t26.652,16.314a57.8,57.8,0,0,1,14.369,25.378,121.12,121.12,0,0,1,4.172,32.629V244.592q-13.442,2.266-35.459,5.438A316.557,316.557,0,0,1,204.5,253.2a196.952,196.952,0,0,1-34.3-2.946,90.4,90.4,0,0,1-29.665-10.423,57.446,57.446,0,0,1-20.858-20.62q-7.88-13.142-7.88-33.535,0-18.127,8.111-30.59a64.188,64.188,0,0,1,20.858-20.166,91.93,91.93,0,0,1,29.2-11.1,163.415,163.415,0,0,1,33.141-3.4,198.847,198.847,0,0,1,44.5,4.985V114.983a79.635,79.635,0,0,0-2.086-18.354,39.185,39.185,0,0,0-23.639-27.644q-9.966-4.305-25.725-4.305A195.022,195.022,0,0,0,161.39,67.4a165.133,165.133,0,0,0-22.712,5.438l-4.635-30.816q7.88-3.625,26.188-6.345A266.89,266.89,0,0,1,199.4,32.958ZM302.3,143.534q0-28.55,9.27-49.4A93.916,93.916,0,0,1,337.06,59.7a106.364,106.364,0,0,1,37.776-20.166,157.362,157.362,0,0,1,46.119-6.571A240.021,240.021,0,0,1,452.243,35a202.065,202.065,0,0,1,33.141,7.477L476.577,74.65a133.978,133.978,0,0,0-28.042-7.024A208.139,208.139,0,0,0,422.81,66.04a112.553,112.553,0,0,0-31.519,4.305,68.5,68.5,0,0,0-25.725,13.6,65.844,65.844,0,0,0-17.382,24.018q-6.489,14.728-6.489,35.574,0,19.94,6.026,34.215a62.163,62.163,0,0,0,16.918,23.565,70.727,70.727,0,0,0,26.188,13.822,118.824,118.824,0,0,0,33.836,4.532,247.408,247.408,0,0,0,28.506-1.586,148.863,148.863,0,0,0,29.9-7.024l5.562,31.269a169.623,169.623,0,0,1-32.909,8.384,245.236,245.236,0,0,1-36.154,2.493q-25.957,0-47.51-7.024a104.823,104.823,0,0,1-37.081-20.62,91.2,91.2,0,0,1-24.1-34.215Q302.3,170.724,302.3,143.534Zm282.278-10.876q12.515,9.064,28.274,22.886t31.287,29.683q15.528,15.861,29.433,32.4a235.157,235.157,0,0,1,22.248,30.59H650.394a223.357,223.357,0,0,0-21.785-28.777q-12.978-14.728-27.579-28.324t-29.2-24.925q-14.6-11.329-26.188-19.034V248.218H507.169V-59.491l38.471-6.344V125.86q25.493-21.753,50.986-43.278a437.137,437.137,0,0,0,45.888-44.638h44.961A480.309,480.309,0,0,1,639.5,85.527Q611.459,110,584.576,132.657Z" transform="translate(569.065 209.754)" fill="#832df4"/>
        <g id="logo-colored-1" transform="translate(0 0)">
          <path id="Path" d="M0,84.1V524.737L67.3,484.1V44Z" transform="translate(0 40.61)" fill="rgba(0,0,0,0)" stroke="#979797" stroke-linecap="round" stroke-linejoin="round" stroke-width="4" fill-rule="evenodd"/>
          <path id="Path-2" data-name="Path" d="M0,440.64V0L67.3,40.64v440.1Z" transform="translate(134.607 565.347) rotate(180)" fill="#fff" stroke="#000" stroke-linecap="round" stroke-linejoin="round" stroke-width="4" fill-rule="evenodd"/>
          <path id="Combined-Shape" d="M0,505.1V65l67.3,40.1V464.746l67.3,40.351v.542l-67.3,40.1Z" transform="translate(0 59.992)" fill="#fff" stroke="#000" stroke-linecap="round" stroke-linejoin="round" stroke-width="4" fill-rule="evenodd"/>
          <path id="Combined-Shape-2" data-name="Combined-Shape" d="M109,480.737V40.1L176.3,0l67.3,40.1V480.737L176.3,440.1Z" transform="translate(100.602)" fill="#fff" stroke="#000" stroke-linecap="round" stroke-linejoin="round" stroke-width="4" fill-rule="evenodd"/>
          <path id="Path-3" data-name="Path" d="M0,440.64V0L67.3,40.64v440.1Z" transform="translate(276.905 521.119) rotate(180)" fill="#fff" stroke="#000" stroke-linecap="round" stroke-linejoin="round" stroke-width="4" fill-rule="evenodd"/>
          <path id="Combined-Shape-3" data-name="Combined-Shape" d="M311.755,21V461.64l-67.3,40.1,0-199.55-142,79.952L35,343.775,244.449,222.223l0-160.583Z" transform="translate(32.304 19.382)" fill="#ac82eb" stroke="#000" stroke-linecap="round" stroke-linejoin="round" stroke-width="4" fill-rule="evenodd"/>
          <path id="Combined-Shape-4" data-name="Combined-Shape" d="M276.755,0V440.64l-67.3,40.1,0-199.55-142,79.952L0,322.775,209.449,201.223l0-160.583Z" transform="translate(276.755 565.347) rotate(180)" fill="#832df4" stroke="#000" stroke-linecap="round" stroke-linejoin="round" stroke-width="4" fill-rule="evenodd"/>
        </g>
      </g>
    </g>
  </g>
</svg>
