<svg xmlns="http://www.w3.org/2000/svg" xmlns:xlink="http://www.w3.org/1999/xlink" width="442.716" height="256" viewBox="0 0 442.716 256">
  <defs>
    <clipPath id="clip-hack-logo-slogan-443x256-purple-transparent-background">
      <rect width="442.716" height="256"/>
    </clipPath>
  </defs>
  <g id="hack-logo-slogan-443x256-purple-transparent-background" clip-path="url(#clip-hack-logo-slogan-443x256-purple-transparent-background)">
    <rect width="442.716" height="256" fill="rgba(255,255,255,0)"/>
    <g id="Group_131" data-name="Group 131" transform="translate(40.923 42.333)">
      <g id="Group_112" data-name="Group 112" transform="translate(0 0)">
        <path id="Path_193" data-name="Path 193" d="M1.65-4.834v-9.637H4.8a3.657,3.657,0,0,1,2.36.649A2.338,2.338,0,0,1,7.951-11.9a1.957,1.957,0,0,1-.384,1.195,2.489,2.489,0,0,1-1.046.8,2.235,2.235,0,0,1,1.234.831,2.384,2.384,0,0,1,.453,1.459,2.577,2.577,0,0,1-.841,2.039,3.476,3.476,0,0,1-2.376.741ZM2.921-9.341v3.468h2.1a2.02,2.02,0,0,0,1.4-.46A1.616,1.616,0,0,0,6.932-7.6q0-1.741-1.893-1.741Zm0-1.019H4.841a2.012,2.012,0,0,0,1.334-.418,1.4,1.4,0,0,0,.5-1.134,1.378,1.378,0,0,0-.463-1.157,2.275,2.275,0,0,0-1.41-.361H2.921Zm8.144,5.527H9.84V-15h1.224Zm1.472-3.647a4.23,4.23,0,0,1,.414-1.893,3.086,3.086,0,0,1,1.152-1.3,3.135,3.135,0,0,1,1.684-.457,3.02,3.02,0,0,1,2.366,1.013,3.9,3.9,0,0,1,.9,2.694v.086a4.267,4.267,0,0,1-.4,1.876,3.04,3.04,0,0,1-1.145,1.294A3.171,3.171,0,0,1,15.8-4.7a3.013,3.013,0,0,1-2.36-1.013,3.876,3.876,0,0,1-.9-2.681Zm1.231.146a3.064,3.064,0,0,0,.553,1.913A1.769,1.769,0,0,0,15.8-5.7a1.758,1.758,0,0,0,1.483-.731,3.35,3.35,0,0,0,.549-2.048,3.058,3.058,0,0,0-.559-1.909,1.778,1.778,0,0,0-1.486-.731,1.758,1.758,0,0,0-1.463.721A3.325,3.325,0,0,0,13.768-8.335ZM23.3-5.7a1.764,1.764,0,0,0,1.145-.4,1.4,1.4,0,0,0,.543-.993h1.158a2.22,2.22,0,0,1-.424,1.171,2.79,2.79,0,0,1-1.042.887A3.008,3.008,0,0,1,23.3-4.7a2.95,2.95,0,0,1-2.326-.976,3.888,3.888,0,0,1-.864-2.671v-.205a4.311,4.311,0,0,1,.384-1.86,2.924,2.924,0,0,1,1.1-1.264,3.13,3.13,0,0,1,1.7-.45,2.872,2.872,0,0,1,2,.721,2.578,2.578,0,0,1,.85,1.873H24.989a1.687,1.687,0,0,0-.526-1.142,1.637,1.637,0,0,0-1.168-.447,1.714,1.714,0,0,0-1.446.672,3.155,3.155,0,0,0-.513,1.943v.232a3.092,3.092,0,0,0,.51,1.906A1.722,1.722,0,0,0,23.3-5.7ZM29.361-8.15l-.768.8v2.515H27.368V-15h1.224v6.149l.655-.788L31.478-12h1.489L30.181-9l3.111,4.17H31.856ZM36.809-5.7a1.764,1.764,0,0,0,1.145-.4,1.4,1.4,0,0,0,.543-.993h1.158a2.22,2.22,0,0,1-.424,1.171,2.79,2.79,0,0,1-1.042.887,3.008,3.008,0,0,1-1.38.331,2.95,2.95,0,0,1-2.326-.976,3.888,3.888,0,0,1-.864-2.671v-.205A4.311,4.311,0,0,1,34-10.413a2.924,2.924,0,0,1,1.1-1.264,3.13,3.13,0,0,1,1.7-.45,2.872,2.872,0,0,1,2,.721,2.578,2.578,0,0,1,.85,1.873H38.5a1.687,1.687,0,0,0-.526-1.142,1.637,1.637,0,0,0-1.168-.447,1.714,1.714,0,0,0-1.446.672,3.155,3.155,0,0,0-.513,1.943v.232a3.092,3.092,0,0,0,.51,1.906A1.722,1.722,0,0,0,36.809-5.7Zm5.284-5.427a2.6,2.6,0,0,1,2.118-1q2.27,0,2.29,2.561v4.732H45.277V-9.573a1.649,1.649,0,0,0-.354-1.145,1.419,1.419,0,0,0-1.082-.371,1.767,1.767,0,0,0-1.046.318,2.157,2.157,0,0,0-.7.834v5.1H40.869V-15h1.224Zm10.5,6.294a2.572,2.572,0,0,1-.172-.755,2.732,2.732,0,0,1-2.039.887,2.528,2.528,0,0,1-1.737-.6,1.938,1.938,0,0,1-.678-1.519,2.024,2.024,0,0,1,.85-1.737,4.01,4.01,0,0,1,2.393-.619H52.4v-.563a1.375,1.375,0,0,0-.384-1.023,1.543,1.543,0,0,0-1.132-.381,1.785,1.785,0,0,0-1.1.331.975.975,0,0,0-.443.8H48.113a1.69,1.69,0,0,1,.381-1.036,2.6,2.6,0,0,1,1.033-.791,3.473,3.473,0,0,1,1.433-.291,2.831,2.831,0,0,1,1.939.619,2.232,2.232,0,0,1,.728,1.7v3.3a4.03,4.03,0,0,0,.252,1.569v.106Zm-2.032-.933a2.152,2.152,0,0,0,1.092-.3,1.8,1.8,0,0,0,.748-.774V-8.309h-.96q-2.25,0-2.25,1.317a1.115,1.115,0,0,0,.384.9A1.475,1.475,0,0,0,50.562-5.767Zm6.152.933H55.489V-12h1.224Zm-1.324-9.061a.731.731,0,0,1,.182-.5.683.683,0,0,1,.539-.205.694.694,0,0,1,.543.205.723.723,0,0,1,.185.5.7.7,0,0,1-.185.5.707.707,0,0,1-.543.2.7.7,0,0,1-.539-.2A.707.707,0,0,1,55.389-13.895ZM59.668-12l.04.9a2.61,2.61,0,0,1,2.144-1.033q2.27,0,2.29,2.561v4.732H62.918V-9.573a1.649,1.649,0,0,0-.354-1.145,1.419,1.419,0,0,0-1.082-.371,1.767,1.767,0,0,0-1.046.318,2.157,2.157,0,0,0-.7.834v5.1H58.51V-12Zm9.543,7.161v-9.637h2.72a4.379,4.379,0,0,1,2.224.556,3.76,3.76,0,0,1,1.493,1.582,5.149,5.149,0,0,1,.533,2.356v.616a5.167,5.167,0,0,1-.526,2.389,3.7,3.7,0,0,1-1.5,1.575,4.658,4.658,0,0,1-2.273.563Zm1.271-8.6v7.558h1.337a2.909,2.909,0,0,0,2.287-.914,3.777,3.777,0,0,0,.817-2.6v-.563a3.837,3.837,0,0,0-.771-2.554,2.744,2.744,0,0,0-2.187-.924ZM80.717-4.7a3.129,3.129,0,0,1-2.369-.956,3.55,3.55,0,0,1-.913-2.558v-.225a4.3,4.3,0,0,1,.407-1.9,3.175,3.175,0,0,1,1.138-1.31,2.862,2.862,0,0,1,1.585-.473,2.682,2.682,0,0,1,2.171.92,3.983,3.983,0,0,1,.774,2.634v.51H78.659a2.546,2.546,0,0,0,.619,1.711,1.945,1.945,0,0,0,1.506.652,2.133,2.133,0,0,0,1.1-.265,2.76,2.76,0,0,0,.788-.7l.748.582A3.007,3.007,0,0,1,80.717-4.7Zm-.152-6.42a1.633,1.633,0,0,0-1.244.539A2.622,2.622,0,0,0,78.7-9.07h3.587v-.093a2.332,2.332,0,0,0-.5-1.446A1.538,1.538,0,0,0,80.565-11.121ZM87.04-6.5,88.814-12h1.251L87.5-4.834h-.933L83.969-12H85.22ZM93.966-4.7A3.129,3.129,0,0,1,91.6-5.658a3.55,3.55,0,0,1-.913-2.558v-.225a4.3,4.3,0,0,1,.407-1.9,3.175,3.175,0,0,1,1.138-1.31,2.862,2.862,0,0,1,1.585-.473,2.682,2.682,0,0,1,2.171.92,3.983,3.983,0,0,1,.774,2.634v.51H91.908a2.546,2.546,0,0,0,.619,1.711,1.945,1.945,0,0,0,1.506.652,2.133,2.133,0,0,0,1.1-.265,2.761,2.761,0,0,0,.788-.7l.748.582A3.007,3.007,0,0,1,93.966-4.7Zm-.152-6.42a1.633,1.633,0,0,0-1.244.539,2.622,2.622,0,0,0-.622,1.512h3.587v-.093a2.332,2.332,0,0,0-.5-1.446A1.538,1.538,0,0,0,93.814-11.121Zm5.529,6.288H98.119V-15h1.224Zm1.472-3.647a4.23,4.23,0,0,1,.414-1.893,3.086,3.086,0,0,1,1.152-1.3,3.135,3.135,0,0,1,1.684-.457,3.02,3.02,0,0,1,2.366,1.013,3.9,3.9,0,0,1,.9,2.694v.086a4.267,4.267,0,0,1-.4,1.876,3.04,3.04,0,0,1-1.145,1.294,3.171,3.171,0,0,1-1.711.463,3.013,3.013,0,0,1-2.36-1.013,3.876,3.876,0,0,1-.9-2.681Zm1.231.146a3.064,3.064,0,0,0,.553,1.913,1.769,1.769,0,0,0,1.479.721,1.758,1.758,0,0,0,1.483-.731,3.35,3.35,0,0,0,.549-2.048,3.058,3.058,0,0,0-.559-1.909,1.778,1.778,0,0,0-1.486-.731,1.758,1.758,0,0,0-1.463.721A3.325,3.325,0,0,0,102.047-8.335Zm12.711,0a4.288,4.288,0,0,1-.748,2.634,2.4,2.4,0,0,1-2.025,1,2.626,2.626,0,0,1-2.052-.827V-2.08h-1.224V-12h1.119l.06.794a2.522,2.522,0,0,1,2.078-.927,2.442,2.442,0,0,1,2.042.973,4.335,4.335,0,0,1,.751,2.707Zm-1.224-.139a3.164,3.164,0,0,0-.516-1.913,1.663,1.663,0,0,0-1.416-.7,1.8,1.8,0,0,0-1.668.986V-6.68a1.8,1.8,0,0,0,1.681.98,1.655,1.655,0,0,0,1.4-.7A3.454,3.454,0,0,0,113.533-8.474ZM117.3-12l.033.794a2.645,2.645,0,0,1,2.125-.927,2.047,2.047,0,0,1,2.045,1.152,2.713,2.713,0,0,1,.93-.834,2.747,2.747,0,0,1,1.354-.318q2.356,0,2.4,2.5v4.8h-1.224V-9.56a1.644,1.644,0,0,0-.351-1.148,1.545,1.545,0,0,0-1.178-.381,1.624,1.624,0,0,0-1.132.407,1.651,1.651,0,0,0-.523,1.1v4.752h-1.231V-9.526a1.366,1.366,0,0,0-1.529-1.562,1.638,1.638,0,0,0-1.648,1.026v5.229h-1.224V-12ZM130.839-4.7a3.129,3.129,0,0,1-2.369-.956,3.55,3.55,0,0,1-.913-2.558v-.225a4.3,4.3,0,0,1,.407-1.9,3.175,3.175,0,0,1,1.138-1.31,2.862,2.862,0,0,1,1.585-.473,2.682,2.682,0,0,1,2.171.92,3.983,3.983,0,0,1,.774,2.634v.51h-4.851a2.546,2.546,0,0,0,.619,1.711,1.945,1.945,0,0,0,1.506.652,2.133,2.133,0,0,0,1.1-.265,2.76,2.76,0,0,0,.788-.7l.748.582A3.007,3.007,0,0,1,130.839-4.7Zm-.152-6.42a1.633,1.633,0,0,0-1.244.539,2.622,2.622,0,0,0-.622,1.512h3.587v-.093a2.332,2.332,0,0,0-.5-1.446A1.538,1.538,0,0,0,130.687-11.121ZM136.044-12l.04.9a2.61,2.61,0,0,1,2.144-1.033q2.27,0,2.29,2.561v4.732h-1.224V-9.573a1.648,1.648,0,0,0-.354-1.145,1.419,1.419,0,0,0-1.082-.371,1.767,1.767,0,0,0-1.046.318,2.157,2.157,0,0,0-.7.834v5.1h-1.224V-12Zm7.819-1.734V-12H145.2v.946h-1.337V-6.6a.994.994,0,0,0,.179.646.752.752,0,0,0,.609.215,2.965,2.965,0,0,0,.582-.079v.987a3.571,3.571,0,0,1-.94.132,1.525,1.525,0,0,1-1.238-.5,2.133,2.133,0,0,1-.417-1.41v-4.441h-1.3V-12h1.3v-1.734ZM149.4-7.422A2.26,2.26,0,0,1,149.79-8.7a5.9,5.9,0,0,1,1.479-1.357,6.388,6.388,0,0,1-.86-1.258,2.257,2.257,0,0,1-.218-.946,2.272,2.272,0,0,1,.649-1.721A2.437,2.437,0,0,1,152.6-14.6a2.372,2.372,0,0,1,1.641.579,1.873,1.873,0,0,1,.649,1.459,2.059,2.059,0,0,1-.295,1.076,3.827,3.827,0,0,1-1.029,1.036l-.708.523L155-7.369a4.063,4.063,0,0,0,.45-1.913h1.105a4.614,4.614,0,0,1-.814,2.8l1.377,1.648h-1.469l-.642-.761a3.355,3.355,0,0,1-1.148.665,4.065,4.065,0,0,1-1.34.228,3.312,3.312,0,0,1-2.264-.748A2.5,2.5,0,0,1,149.4-7.422ZM152.52-5.7a2.577,2.577,0,0,0,1.78-.741l-2.35-2.813-.218.159a2.2,2.2,0,0,0-1.105,1.675,1.625,1.625,0,0,0,.506,1.251A1.959,1.959,0,0,0,152.52-5.7Zm-1.105-6.6a2.78,2.78,0,0,0,.781,1.588l.781-.549a2.079,2.079,0,0,0,.616-.606,1.38,1.38,0,0,0,.165-.7.947.947,0,0,0-.331-.738,1.208,1.208,0,0,0-.834-.295,1.079,1.079,0,0,0-.86.367A1.371,1.371,0,0,0,151.415-12.3ZM168.4-7.892a3.545,3.545,0,0,1-1.128,2.36,3.7,3.7,0,0,1-2.525.831,3.4,3.4,0,0,1-2.737-1.224A4.926,4.926,0,0,1,160.978-9.2v-.927a5.491,5.491,0,0,1,.48-2.363,3.584,3.584,0,0,1,1.36-1.565,3.787,3.787,0,0,1,2.039-.546,3.482,3.482,0,0,1,2.462.857,3.588,3.588,0,0,1,1.079,2.373H167.12a2.769,2.769,0,0,0-.718-1.673,2.173,2.173,0,0,0-1.545-.518,2.274,2.274,0,0,0-1.909.9,4.136,4.136,0,0,0-.692,2.564v.934a4.251,4.251,0,0,0,.655,2.5,2.117,2.117,0,0,0,1.833.927,2.445,2.445,0,0,0,1.625-.48,2.663,2.663,0,0,0,.751-1.671Zm1.055-.589a4.23,4.23,0,0,1,.414-1.893,3.086,3.086,0,0,1,1.152-1.3,3.135,3.135,0,0,1,1.684-.457,3.02,3.02,0,0,1,2.366,1.013,3.9,3.9,0,0,1,.9,2.694v.086a4.266,4.266,0,0,1-.4,1.876,3.04,3.04,0,0,1-1.145,1.294,3.171,3.171,0,0,1-1.711.463,3.013,3.013,0,0,1-2.36-1.013,3.876,3.876,0,0,1-.9-2.681Zm1.231.146a3.064,3.064,0,0,0,.553,1.913,1.769,1.769,0,0,0,1.479.721,1.758,1.758,0,0,0,1.483-.731,3.35,3.35,0,0,0,.549-2.048,3.058,3.058,0,0,0-.559-1.909,1.778,1.778,0,0,0-1.486-.731,1.758,1.758,0,0,0-1.463.721A3.325,3.325,0,0,0,170.683-8.335ZM178.5-12l.04.9a2.61,2.61,0,0,1,2.144-1.033q2.27,0,2.29,2.561v4.732h-1.224V-9.573a1.648,1.648,0,0,0-.354-1.145,1.419,1.419,0,0,0-1.082-.371,1.767,1.767,0,0,0-1.046.318,2.157,2.157,0,0,0-.7.834v5.1h-1.224V-12ZM188.83-6.733a.9.9,0,0,0-.374-.771,3.6,3.6,0,0,0-1.3-.473,6.165,6.165,0,0,1-1.476-.477,2.1,2.1,0,0,1-.807-.662,1.583,1.583,0,0,1-.261-.913,1.858,1.858,0,0,1,.745-1.489,2.908,2.908,0,0,1,1.9-.609,2.992,2.992,0,0,1,1.976.629,2,2,0,0,1,.758,1.608h-1.231a1.105,1.105,0,0,0-.427-.867,1.6,1.6,0,0,0-1.076-.364,1.674,1.674,0,0,0-1.046.291.917.917,0,0,0-.377.761.743.743,0,0,0,.351.668,4.315,4.315,0,0,0,1.267.43,6.6,6.6,0,0,1,1.486.49,2.168,2.168,0,0,1,.844.685,1.684,1.684,0,0,1,.275.976,1.833,1.833,0,0,1-.768,1.539,3.22,3.22,0,0,1-1.992.579,3.606,3.606,0,0,1-1.522-.3,2.476,2.476,0,0,1-1.036-.85,2.05,2.05,0,0,1-.374-1.181h1.224a1.268,1.268,0,0,0,.493.976,1.913,1.913,0,0,0,1.215.361,1.975,1.975,0,0,0,1.115-.281A.864.864,0,0,0,188.83-6.733Zm7.078,1.191a2.6,2.6,0,0,1-2.1.841,2.226,2.226,0,0,1-1.744-.665,2.879,2.879,0,0,1-.606-1.969V-12h1.224v4.626q0,1.628,1.324,1.628a1.833,1.833,0,0,0,1.866-1.046V-12H197.1v7.161h-1.165Zm4.219.708H198.9V-15h1.224Zm3.458-8.9V-12h1.337v.946h-1.337V-6.6a.994.994,0,0,0,.179.646.752.752,0,0,0,.609.215,2.964,2.964,0,0,0,.582-.079v.987a3.57,3.57,0,0,1-.94.132,1.525,1.525,0,0,1-1.238-.5,2.132,2.132,0,0,1-.417-1.41v-4.441h-1.3V-12h1.3v-1.734Zm3.934,8.9h-1.224V-12h1.224ZM206.2-13.895a.731.731,0,0,1,.182-.5.683.683,0,0,1,.539-.205.694.694,0,0,1,.543.205.723.723,0,0,1,.185.5.7.7,0,0,1-.185.5.707.707,0,0,1-.543.2.7.7,0,0,1-.539-.2A.707.707,0,0,1,206.2-13.895Zm4.278,1.9.04.9a2.61,2.61,0,0,1,2.144-1.033q2.27,0,2.29,2.561v4.732h-1.224V-9.573a1.649,1.649,0,0,0-.354-1.145,1.419,1.419,0,0,0-1.082-.371,1.767,1.767,0,0,0-1.046.318,2.157,2.157,0,0,0-.7.834v5.1h-1.224V-12Zm5.867,3.521a4.209,4.209,0,0,1,.774-2.664,2.476,2.476,0,0,1,2.052-.989,2.463,2.463,0,0,1,2.045.927l.06-.794h1.119v6.989a2.913,2.913,0,0,1-.824,2.191,3.041,3.041,0,0,1-2.214.8,3.683,3.683,0,0,1-1.516-.331,2.609,2.609,0,0,1-1.132-.907l.635-.735a2.394,2.394,0,0,0,1.926.973,1.876,1.876,0,0,0,1.393-.5,1.923,1.923,0,0,0,.5-1.416v-.616a2.517,2.517,0,0,1-2.005.847,2.446,2.446,0,0,1-2.035-1.013A4.425,4.425,0,0,1,216.341-8.474Zm1.231.139a3.211,3.211,0,0,0,.5,1.9,1.613,1.613,0,0,0,1.39.692,1.794,1.794,0,0,0,1.7-1.052v-3.27a1.815,1.815,0,0,0-1.688-1.026,1.627,1.627,0,0,0-1.4.695A3.5,3.5,0,0,0,217.572-8.335Z" transform="translate(138.152 136.316)" fill="#832df4"/>
        <g id="Hhack_line" data-name="Hhack line">
          <path id="Path_151" data-name="Path 151" d="M-76.855,22.94V-64.042l10.875-1.793V-35.6a30.9,30.9,0,0,1,5.9-1.6,37,37,0,0,1,6.42-.576,29.62,29.62,0,0,1,11.6,1.986,18.012,18.012,0,0,1,7.4,5.572,22.328,22.328,0,0,1,3.931,8.583,47.977,47.977,0,0,1,1.179,11.017V22.94H-40.3V-8.317q0-11.017-3.145-15.564t-11.268-4.548a30.775,30.775,0,0,0-6.617.7A26.471,26.471,0,0,0-65.98-26.38V22.94ZM2.283,15.382q4.062,0,7.272-.256t5.306-.641V-3.193A31.366,31.366,0,0,0,9.817-4.218,48.17,48.17,0,0,0,3.593-4.6a38.309,38.309,0,0,0-5.9.448,16.6,16.6,0,0,0-5.11,1.6A10.92,10.92,0,0,0-11.082.458a7.4,7.4,0,0,0-1.441,4.676q0,5.765,4,8.006T2.283,15.382ZM1.235-37.909A34.275,34.275,0,0,1,12.7-36.243a19.561,19.561,0,0,1,7.534,4.612,16.338,16.338,0,0,1,4.062,7.174,34.238,34.238,0,0,1,1.179,9.223v37.15q-3.8.64-10.023,1.537a89.482,89.482,0,0,1-12.775.9,55.673,55.673,0,0,1-9.7-.833,25.552,25.552,0,0,1-8.385-2.946,16.238,16.238,0,0,1-5.9-5.829,18.207,18.207,0,0,1-2.227-9.48,15.519,15.519,0,0,1,2.293-8.647,18.145,18.145,0,0,1,5.9-5.7,25.987,25.987,0,0,1,8.254-3.138,46.193,46.193,0,0,1,9.368-.961,56.209,56.209,0,0,1,12.578,1.409v-2.946a22.512,22.512,0,0,0-.59-5.188,11.4,11.4,0,0,0-2.227-4.548,11.3,11.3,0,0,0-4.455-3.267A18.5,18.5,0,0,0,.317-28.942a55.127,55.127,0,0,0-9.827.769,46.675,46.675,0,0,0-6.42,1.537l-1.31-8.711a29.842,29.842,0,0,1,7.4-1.793A75.443,75.443,0,0,1,1.235-37.909ZM30.322-6.652a34.156,34.156,0,0,1,2.62-13.963,26.548,26.548,0,0,1,7.206-9.736,30.067,30.067,0,0,1,10.678-5.7,44.482,44.482,0,0,1,13.037-1.857,67.846,67.846,0,0,1,8.844.576,57.118,57.118,0,0,1,9.368,2.114l-2.489,9.1a37.872,37.872,0,0,0-7.927-1.986,58.837,58.837,0,0,0-7.272-.448,31.816,31.816,0,0,0-8.91,1.217A19.364,19.364,0,0,0,48.206-23.5a18.612,18.612,0,0,0-4.913,6.789A24.858,24.858,0,0,0,41.459-6.652a24.8,24.8,0,0,0,1.7,9.672,17.572,17.572,0,0,0,4.782,6.661,19.993,19.993,0,0,0,7.4,3.907,33.588,33.588,0,0,0,9.565,1.281,69.936,69.936,0,0,0,8.058-.448,42.08,42.08,0,0,0,8.451-1.986l1.572,8.839a47.949,47.949,0,0,1-9.3,2.37,69.322,69.322,0,0,1-10.22.7,43.152,43.152,0,0,1-13.43-1.986,29.631,29.631,0,0,1-10.482-5.829,25.778,25.778,0,0,1-6.813-9.672A34.985,34.985,0,0,1,30.322-6.652Zm79.793-3.074q3.538,2.562,7.992,6.469t8.844,8.391q4.389,4.484,8.32,9.159a66.476,66.476,0,0,1,6.289,8.647H128.72a63.135,63.135,0,0,0-6.158-8.134q-3.669-4.163-7.8-8.006T106.511-.247q-4.127-3.2-7.4-5.38V22.94H88.234V-64.042l10.875-1.793v54.187q7.206-6.149,14.412-12.234A123.571,123.571,0,0,0,126.492-36.5H139.2a135.777,135.777,0,0,1-13.561,13.451Q117.714-16.131,110.115-9.726Z" transform="translate(216.229 91.834)" fill="#832df4"/>
          <g id="logo-colored-1">
            <path id="Path" d="M0,55.335V179.892L19.025,168.4V44Z" transform="translate(0 -20.083)" fill="rgba(0,0,0,0)" stroke="#979797" stroke-linecap="round" stroke-linejoin="round" stroke-width="1.5" fill-rule="evenodd"/>
            <path id="Path-2" data-name="Path" d="M0,124.558V0L19.025,11.488v124.4Z" transform="translate(38.05 159.809) rotate(180)" fill="#fff" stroke="#000" stroke-linecap="round" stroke-linejoin="round" stroke-width="1.5" fill-rule="evenodd"/>
            <path id="Combined-Shape" d="M0,189.4V65L19.025,76.335V178L38.05,189.4v.153L19.025,200.892Z" transform="translate(0 -29.668)" fill="#fff" stroke="#000" stroke-linecap="round" stroke-linejoin="round" stroke-width="1.5" fill-rule="evenodd"/>
            <path id="Combined-Shape-2" data-name="Combined-Shape" d="M109,135.892V11.335L128.025,0,147.05,11.335V135.892L128.025,124.4Z" transform="translate(-49.751)" fill="#fff" stroke="#000" stroke-linecap="round" stroke-linejoin="round" stroke-width="1.5" fill-rule="evenodd"/>
            <path id="Path-3" data-name="Path" d="M0,124.558V0L19.025,11.488v124.4Z" transform="translate(78.274 147.307) rotate(180)" fill="#fff" stroke="#000" stroke-linecap="round" stroke-linejoin="round" stroke-width="1.5" fill-rule="evenodd"/>
            <path id="Combined-Shape-3" data-name="Combined-Shape" d="M113.231,21V145.558L94.207,156.892V100.484l-40.14,22.6L35,112.24l59.206-34.36V32.488Z" transform="translate(-15.975 -9.585)" fill="#ac82eb" stroke="#000" stroke-linecap="round" stroke-linejoin="round" stroke-width="1.5" fill-rule="evenodd"/>
            <path id="Combined-Shape-4" data-name="Combined-Shape" d="M78.231,0V124.558L59.207,135.892V79.484l-40.14,22.6L0,91.24,59.206,56.881V11.488Z" transform="translate(78.231 159.809) rotate(180)" fill="#832df4" stroke="#000" stroke-linecap="round" stroke-linejoin="round" stroke-width="1.5" fill-rule="evenodd"/>
          </g>
        </g>
      </g>
    </g>
  </g>
</svg>
