<svg xmlns="http://www.w3.org/2000/svg" xmlns:xlink="http://www.w3.org/1999/xlink" width="754" height="436" viewBox="0 0 754 436">
  <defs>
    <clipPath id="clip-hack-logo-754x436-purple-transparent-background">
      <rect width="754" height="436"/>
    </clipPath>
  </defs>
  <g id="hack-logo-754x436-purple-transparent-background" clip-path="url(#clip-hack-logo-754x436-purple-transparent-background)">
    <rect width="754" height="436" fill="rgba(255,255,255,0)"/>
    <g id="Group_119" data-name="Group 119" transform="translate(1)">
      <g id="Hhack" transform="translate(70.003 71.478)">
        <path id="Path_151" data-name="Path 151" d="M-76.855,86.306V-62.761l18.637-3.074v51.811a52.958,52.958,0,0,1,10.1-2.744,63.413,63.413,0,0,1,11-.988q11.9,0,19.872,3.4A30.869,30.869,0,0,1-4.551-4.8,38.265,38.265,0,0,1,2.185,9.906a82.223,82.223,0,0,1,2.021,18.88V86.306H-14.207V32.738q0-18.88-5.389-26.674T-38.907-1.729A52.742,52.742,0,0,0-50.246-.522a45.363,45.363,0,0,0-7.971,2.305V86.306ZM58.77,73.353q6.961,0,12.462-.439t9.094-1.1V41.52a53.755,53.755,0,0,0-8.645-1.756,82.553,82.553,0,0,0-10.666-.659,65.655,65.655,0,0,0-10.1.768,28.446,28.446,0,0,0-8.757,2.744,18.715,18.715,0,0,0-6.287,5.159A12.681,12.681,0,0,0,33.4,55.79q0,9.879,6.849,13.721T58.77,73.353Zm-1.8-91.329q11.676,0,19.648,2.854a33.523,33.523,0,0,1,12.911,7.9A28,28,0,0,1,96.494,5.076a58.676,58.676,0,0,1,2.021,15.807V84.55Q92,85.648,81.337,87.184a153.355,153.355,0,0,1-21.893,1.537,95.412,95.412,0,0,1-16.616-1.427,43.792,43.792,0,0,1-14.371-5.049,27.829,27.829,0,0,1-10.1-9.989q-3.817-6.367-3.817-16.246,0-8.782,3.93-14.819a31.1,31.1,0,0,1,10.1-9.77,44.535,44.535,0,0,1,14.146-5.379A79.165,79.165,0,0,1,58.77,24.4a96.33,96.33,0,0,1,21.556,2.415V21.761a38.579,38.579,0,0,0-1.01-8.891A18.983,18.983,0,0,0,67.865-.522,31.7,31.7,0,0,0,55.4-2.608,94.477,94.477,0,0,0,38.561-1.29a80,80,0,0,0-11,2.634L25.313-13.584Q29.13-15.341,38-16.658A129.294,129.294,0,0,1,56.974-17.975Zm49.849,53.568q0-13.831,4.491-23.93a45.5,45.5,0,0,1,12.35-16.685,51.527,51.527,0,0,1,18.3-9.77,76.233,76.233,0,0,1,22.342-3.183,116.277,116.277,0,0,1,15.157.988,97.889,97.889,0,0,1,16.055,3.622L191.252,2.222a64.9,64.9,0,0,0-13.585-3.4A100.831,100.831,0,0,0,165.2-1.949,54.526,54.526,0,0,0,149.936.137a33.186,33.186,0,0,0-12.462,6.586,31.9,31.9,0,0,0-8.42,11.636,42.6,42.6,0,0,0-3.144,17.234,42.51,42.51,0,0,0,2.919,16.575,30.115,30.115,0,0,0,8.2,11.416,34.263,34.263,0,0,0,12.687,6.7,57.564,57.564,0,0,0,16.392,2.2,119.855,119.855,0,0,0,13.81-.768A72.116,72.116,0,0,0,194.4,68.3l2.694,15.148a82.173,82.173,0,0,1-15.943,4.061,118.8,118.8,0,0,1-17.515,1.207,73.954,73.954,0,0,1-23.016-3.4,50.781,50.781,0,0,1-17.964-9.989,44.18,44.18,0,0,1-11.676-16.575A59.958,59.958,0,0,1,106.823,35.592Zm136.748-5.269q6.063,4.391,13.7,11.087t15.157,14.38q7.522,7.684,14.259,15.7a113.92,113.92,0,0,1,10.778,14.819H275.457A108.2,108.2,0,0,0,264.9,72.365q-6.287-7.135-13.36-13.721T237.4,46.569q-7.073-5.489-12.687-9.221V86.306H206.072V-62.761l18.637-3.074V27.03q12.35-10.538,24.7-20.966a211.768,211.768,0,0,0,22.23-21.625H293.42A232.682,232.682,0,0,1,270.18,7.491Q256.595,19.346,243.571,30.323Z" transform="translate(315.303 135.556)" fill="#832df4"/>
        <g id="logo-colored-1" transform="translate(0 0)">
          <path id="Path" d="M0,63.425V276.89L32.6,257.2V44Z" transform="translate(0 -3.011)" fill="rgba(0,0,0,0)" stroke="#979797" stroke-linecap="round" stroke-linejoin="round" stroke-width="3" fill-rule="evenodd"/>
          <path id="Path-2" data-name="Path" d="M0,213.465V0L32.6,19.688v213.2Z" transform="translate(65.209 273.879) rotate(180)" fill="#fff" stroke="#000" stroke-linecap="round" stroke-linejoin="round" stroke-width="3" fill-rule="evenodd"/>
          <path id="Combined-Shape" d="M0,278.2V65L32.6,84.425v174.23l32.6,19.548v.263L32.6,297.89Z" transform="translate(0 -4.448)" fill="#fff" stroke="#000" stroke-linecap="round" stroke-linejoin="round" stroke-width="3" fill-rule="evenodd"/>
          <path id="Combined-Shape-2" data-name="Combined-Shape" d="M109,232.89V19.425L141.6,0l32.6,19.425V232.89L141.6,213.2Z" transform="translate(-7.46)" fill="#fff" stroke="#000" stroke-linecap="round" stroke-linejoin="round" stroke-width="3" fill-rule="evenodd"/>
          <path id="Path-3" data-name="Path" d="M0,213.465V0L32.6,19.688v213.2Z" transform="translate(134.145 252.453) rotate(180)" fill="#fff" stroke="#000" stroke-linecap="round" stroke-linejoin="round" stroke-width="3" fill-rule="evenodd"/>
          <path id="Combined-Shape-3" data-name="Combined-Shape" d="M169.072,21V234.466l-32.6,19.425V157.219L67.676,195.952,35,177.366l101.467-58.885V40.688Z" transform="translate(-2.395 -1.437)" fill="#ac82eb" stroke="#000" stroke-linecap="round" stroke-linejoin="round" stroke-width="3" fill-rule="evenodd"/>
          <path id="Combined-Shape-4" data-name="Combined-Shape" d="M134.072,0V213.466l-32.6,19.425V136.219L32.676,174.952,0,156.366,101.467,97.481V19.688Z" transform="translate(134.072 273.879) rotate(180)" fill="#832df4" stroke="#000" stroke-linecap="round" stroke-linejoin="round" stroke-width="3" fill-rule="evenodd"/>
        </g>
      </g>
    </g>
  </g>
</svg>
