<svg xmlns="http://www.w3.org/2000/svg" xmlns:xlink="http://www.w3.org/1999/xlink" width="442.716" height="256" viewBox="0 0 442.716 256">
  <defs>
    <clipPath id="clip-hack-logo-443x256-purple-transparent-background_">
      <rect width="442.716" height="256"/>
    </clipPath>
  </defs>
  <g id="hack-logo-443x256-purple-transparent-background_" data-name="hack-logo-443x256-purple-transparent-background " clip-path="url(#clip-hack-logo-443x256-purple-transparent-background_)">
    <rect width="442.716" height="256" fill="rgba(255,255,255,0)"/>
    <g id="Group_132" data-name="Group 132" transform="translate(41.748 41.969)">
      <g id="Hhack" transform="translate(0 0)">
        <path id="Path_151" data-name="Path 151" d="M-76.855,23.5V-64.03l10.943-1.8v30.421a31.094,31.094,0,0,1,5.933-1.611,37.234,37.234,0,0,1,6.46-.58,29.805,29.805,0,0,1,11.668,2A18.125,18.125,0,0,1-34.4-30a22.468,22.468,0,0,1,3.955,8.637A48.277,48.277,0,0,1-29.26-10.277V23.5H-40.071V-7.957q0-11.086-3.164-15.662t-11.339-4.576a30.968,30.968,0,0,0-6.658.709,26.635,26.635,0,0,0-4.68,1.354V23.5ZM2.778,15.89q4.087,0,7.317-.258t5.34-.645V-2.8a31.562,31.562,0,0,0-5.076-1.031A48.472,48.472,0,0,0,4.1-4.219a38.55,38.55,0,0,0-5.933.451A16.7,16.7,0,0,0-6.978-2.156,10.988,10.988,0,0,0-10.67.873a7.446,7.446,0,0,0-1.45,4.7q0,5.8,4.021,8.057T2.778,15.89ZM1.724-37.734A34.49,34.49,0,0,1,13.26-36.058a19.683,19.683,0,0,1,7.581,4.641A16.441,16.441,0,0,1,24.928-24.2a34.452,34.452,0,0,1,1.187,9.281V22.464q-3.823.645-10.086,1.547a90.043,90.043,0,0,1-12.855.9,56.022,56.022,0,0,1-9.756-.838,25.713,25.713,0,0,1-8.438-2.965,16.34,16.34,0,0,1-5.933-5.865,18.321,18.321,0,0,1-2.241-9.539,15.616,15.616,0,0,1,2.307-8.7A18.258,18.258,0,0,1-14.955-8.73a26.149,26.149,0,0,1,8.306-3.158,46.483,46.483,0,0,1,9.427-.967,56.561,56.561,0,0,1,12.657,1.418V-14.4a22.652,22.652,0,0,0-.593-5.221A11.474,11.474,0,0,0,12.6-24.2a11.37,11.37,0,0,0-4.483-3.287A18.615,18.615,0,0,0,.8-28.711a55.473,55.473,0,0,0-9.888.773,46.971,46.971,0,0,0-6.46,1.547l-1.318-8.765a30.028,30.028,0,0,1,7.449-1.8A75.915,75.915,0,0,1,1.724-37.734ZM30.993-6.281A34.37,34.37,0,0,1,33.63-20.332a26.714,26.714,0,0,1,7.251-9.8,30.255,30.255,0,0,1,10.745-5.736,44.761,44.761,0,0,1,13.118-1.869,68.272,68.272,0,0,1,8.9.58,57.477,57.477,0,0,1,9.427,2.127l-2.505,9.152a38.109,38.109,0,0,0-7.977-2,59.2,59.2,0,0,0-7.317-.451A32.015,32.015,0,0,0,56.307-27.1a19.485,19.485,0,0,0-7.317,3.867A18.729,18.729,0,0,0,44.045-16.4,25.014,25.014,0,0,0,42.2-6.281a24.96,24.96,0,0,0,1.714,9.732,17.682,17.682,0,0,0,4.812,6.7,20.118,20.118,0,0,0,7.449,3.932A33.8,33.8,0,0,0,65.8,15.375a70.374,70.374,0,0,0,8.108-.451,42.343,42.343,0,0,0,8.5-2l1.582,8.894A48.248,48.248,0,0,1,74.633,24.2a69.756,69.756,0,0,1-10.284.709,43.423,43.423,0,0,1-13.514-2A29.816,29.816,0,0,1,40.288,17.05a25.94,25.94,0,0,1-6.856-9.732A35.2,35.2,0,0,1,30.993-6.281Zm80.293-3.094q3.56,2.578,8.042,6.51t8.9,8.443q4.417,4.512,8.372,9.217a66.888,66.888,0,0,1,6.328,8.7H130.007a63.534,63.534,0,0,0-6.2-8.185q-3.692-4.189-7.845-8.057T107.66.164q-4.153-3.223-7.449-5.414V23.5H89.267V-64.03l10.943-1.8v54.526q7.251-6.187,14.5-12.31a124.342,124.342,0,0,0,13.052-12.7h12.789a136.624,136.624,0,0,1-13.646,13.535Q118.932-15.82,111.285-9.375Z" transform="translate(216.861 106.772)" fill="#832df4"/>
        <g id="logo-colored-1">
          <path id="Path" d="M0,55.406V180.743l19.144-11.56V44Z" transform="translate(0 -19.933)" fill="rgba(0,0,0,0)" stroke="#979797" stroke-linecap="round" stroke-linejoin="round" stroke-width="1.5" fill-rule="evenodd"/>
          <path id="Path-2" data-name="Path" d="M0,125.337V0L19.144,11.56V136.743Z" transform="translate(38.288 160.81) rotate(180)" fill="#fff" stroke="#000" stroke-linecap="round" stroke-linejoin="round" stroke-width="1.5" fill-rule="evenodd"/>
          <path id="Combined-Shape" d="M0,190.183V65L19.144,76.406v102.3l19.144,11.478v.154L19.144,201.743Z" transform="translate(0 -29.447)" fill="#fff" stroke="#000" stroke-linecap="round" stroke-linejoin="round" stroke-width="1.5" fill-rule="evenodd"/>
          <path id="Combined-Shape-2" data-name="Combined-Shape" d="M109,136.743V11.406L128.144,0l19.144,11.406V136.743l-19.144-11.56Z" transform="translate(-49.38)" fill="#fff" stroke="#000" stroke-linecap="round" stroke-linejoin="round" stroke-width="1.5" fill-rule="evenodd"/>
          <path id="Path-3" data-name="Path" d="M0,125.337V0L19.144,11.56V136.743Z" transform="translate(78.764 148.229) rotate(180)" fill="#fff" stroke="#000" stroke-linecap="round" stroke-linejoin="round" stroke-width="1.5" fill-rule="evenodd"/>
          <path id="Combined-Shape-3" data-name="Combined-Shape" d="M113.721,21V146.338L94.577,157.743V100.982L54.186,123.724,35,112.811,94.577,78.237V32.56Z" transform="translate(-15.856 -9.514)" fill="#ac82eb" stroke="#000" stroke-linecap="round" stroke-linejoin="round" stroke-width="1.5" fill-rule="evenodd"/>
          <path id="Combined-Shape-4" data-name="Combined-Shape" d="M78.721,0V125.338L59.577,136.743V79.982L19.186,102.724,0,91.811,59.577,57.237V11.56Z" transform="translate(78.721 160.81) rotate(180)" fill="#832df4" stroke="#000" stroke-linecap="round" stroke-linejoin="round" stroke-width="1.5" fill-rule="evenodd"/>
        </g>
      </g>
    </g>
  </g>
</svg>
