<svg xmlns="http://www.w3.org/2000/svg" xmlns:xlink="http://www.w3.org/1999/xlink" width="172" height="100" viewBox="0 0 172 100">
  <defs>
    <clipPath id="clip-hack-logo-172x100-purple-transparent-background">
      <rect width="172" height="100"/>
    </clipPath>
  </defs>
  <g id="hack-logo-172x100-purple-transparent-background" clip-path="url(#clip-hack-logo-172x100-purple-transparent-background)">
    <rect width="172" height="100" fill="rgba(255,255,255,0)"/>
    <g id="Group_120" data-name="Group 120">
      <g id="Hhack" transform="translate(16.07 16.409)">
        <path id="Path_151" data-name="Path 151" d="M-76.855-30.909V-65.129l4.278-.706v11.894a12.157,12.157,0,0,1,2.32-.63,14.558,14.558,0,0,1,2.526-.227,11.653,11.653,0,0,1,4.562.781,7.086,7.086,0,0,1,2.912,2.192,8.784,8.784,0,0,1,1.546,3.377,18.875,18.875,0,0,1,.464,4.334v13.2h-4.227v-12.3q0-4.334-1.237-6.123t-4.433-1.789a12.108,12.108,0,0,0-2.6.277,10.413,10.413,0,0,0-1.83.529v19.4Zm31.135-2.974q1.6,0,2.861-.1t2.088-.252V-41.19a12.34,12.34,0,0,0-1.985-.4,18.951,18.951,0,0,0-2.449-.151,15.072,15.072,0,0,0-2.32.176,6.53,6.53,0,0,0-2.01.63,4.3,4.3,0,0,0-1.443,1.184,2.911,2.911,0,0,0-.567,1.84,3.3,3.3,0,0,0,1.572,3.15A8.708,8.708,0,0,0-45.72-33.882Zm-.412-20.966a13.485,13.485,0,0,1,4.51.655,7.7,7.7,0,0,1,2.964,1.814,6.428,6.428,0,0,1,1.6,2.822,13.47,13.47,0,0,1,.464,3.629v14.616q-1.495.252-3.943.6a35.2,35.2,0,0,1-5.026.353,21.9,21.9,0,0,1-3.815-.328,10.053,10.053,0,0,1-3.3-1.159A6.389,6.389,0,0,1-55-34.134a7.163,7.163,0,0,1-.876-3.729,6.106,6.106,0,0,1,.9-3.4,7.138,7.138,0,0,1,2.32-2.243,10.224,10.224,0,0,1,3.247-1.235,18.174,18.174,0,0,1,3.686-.378,22.114,22.114,0,0,1,4.949.554v-1.159A8.856,8.856,0,0,0-41-47.767a4.486,4.486,0,0,0-.876-1.789,4.445,4.445,0,0,0-1.753-1.285,7.278,7.278,0,0,0-2.861-.479,21.689,21.689,0,0,0-3.866.3,18.364,18.364,0,0,0-2.526.6L-53.4-53.84a11.74,11.74,0,0,1,2.912-.706A29.681,29.681,0,0,1-46.133-54.848Zm11.444,12.3a13.438,13.438,0,0,1,1.031-5.493,10.444,10.444,0,0,1,2.835-3.83,11.829,11.829,0,0,1,4.2-2.243,17.5,17.5,0,0,1,5.129-.731,26.693,26.693,0,0,1,3.479.227,22.472,22.472,0,0,1,3.686.832l-.979,3.578a14.9,14.9,0,0,0-3.119-.781,23.148,23.148,0,0,0-2.861-.176,12.517,12.517,0,0,0-3.505.479,7.618,7.618,0,0,0-2.861,1.512,7.323,7.323,0,0,0-1.933,2.671,9.78,9.78,0,0,0-.722,3.956,9.759,9.759,0,0,0,.67,3.805,6.913,6.913,0,0,0,1.881,2.621,7.866,7.866,0,0,0,2.912,1.537,13.215,13.215,0,0,0,3.763.5,27.515,27.515,0,0,0,3.17-.176,16.555,16.555,0,0,0,3.325-.781l.619,3.477a18.864,18.864,0,0,1-3.66.932,27.273,27.273,0,0,1-4.021.277,16.977,16.977,0,0,1-5.284-.781,11.657,11.657,0,0,1-4.124-2.293,10.142,10.142,0,0,1-2.68-3.805A13.764,13.764,0,0,1-34.689-42.551ZM-3.3-43.761Q-1.9-42.753-.152-41.215t3.479,3.3q1.727,1.764,3.273,3.6a26.152,26.152,0,0,1,2.474,3.4H4.023a24.839,24.839,0,0,0-2.423-3.2q-1.443-1.638-3.067-3.15t-3.247-2.772q-1.624-1.26-2.912-2.117v11.239h-4.278V-65.129l4.278-.706v21.319q2.835-2.419,5.67-4.813a48.615,48.615,0,0,0,5.1-4.964h5A53.415,53.415,0,0,1,2.812-49Q-.307-46.28-3.3-43.761Z" transform="translate(131.594 81.84)" fill="#832df4"/>
        <g id="logo-colored-1" transform="translate(0 0)">
          <path id="Path" d="M0,48.459v49l7.485-4.52V44Z" transform="translate(0 -34.59)" fill="rgba(0,0,0,0)" stroke="#979797" stroke-linecap="round" stroke-linejoin="round" stroke-width="0.7" fill-rule="evenodd"/>
          <path id="Path-2" data-name="Path" d="M0,49V0L7.485,4.52V53.463Z" transform="translate(14.97 62.873) rotate(180)" fill="#fff" stroke="#000" stroke-linecap="round" stroke-linejoin="round" stroke-width="0.7" fill-rule="evenodd"/>
          <path id="Combined-Shape" d="M0,113.944V65l7.485,4.459v40l7.485,4.488V114l-7.485,4.459Z" transform="translate(0 -51.1)" fill="#fff" stroke="#000" stroke-linecap="round" stroke-linejoin="round" stroke-width="0.7" fill-rule="evenodd"/>
          <path id="Combined-Shape-2" data-name="Combined-Shape" d="M109,53.463v-49L116.485,0l7.485,4.459v49l-7.485-4.52Z" transform="translate(-85.69)" fill="#fff" stroke="#000" stroke-linecap="round" stroke-linejoin="round" stroke-width="0.7" fill-rule="evenodd"/>
          <path id="Path-3" data-name="Path" d="M0,49V0L7.485,4.52V53.463Z" transform="translate(30.795 57.954) rotate(180)" fill="#fff" stroke="#000" stroke-linecap="round" stroke-linejoin="round" stroke-width="0.7" fill-rule="evenodd"/>
          <path id="Combined-Shape-3" data-name="Combined-Shape" d="M65.778,21V70l-7.485,4.459V52.271L42.5,61.163,35,56.9,58.293,43.378V25.52Z" transform="translate(-27.515 -16.509)" fill="#ac82eb" stroke="#000" stroke-linecap="round" stroke-linejoin="round" stroke-width="0.7" fill-rule="evenodd"/>
          <path id="Combined-Shape-4" data-name="Combined-Shape" d="M30.778,0V49l-7.485,4.459V31.271L7.5,40.163,0,35.9,23.293,22.378V4.52Z" transform="translate(30.778 62.873) rotate(180)" fill="#832df4" stroke="#000" stroke-linecap="round" stroke-linejoin="round" stroke-width="0.7" fill-rule="evenodd"/>
        </g>
      </g>
    </g>
  </g>
</svg>
