<svg xmlns="http://www.w3.org/2000/svg" xmlns:xlink="http://www.w3.org/1999/xlink" width="100" height="100" viewBox="0 0 100 100">
  <defs>
    <clipPath id="clip-hack-logomark-100x100-purple-transparent-background">
      <rect width="100" height="100"/>
    </clipPath>
  </defs>
  <g id="hack-logomark-100x100-purple-transparent-background" clip-path="url(#clip-hack-logomark-100x100-purple-transparent-background)">
    <rect width="100" height="100" fill="rgba(255,255,255,0)"/>
    <g id="Group_124" data-name="Group 124">
      <g id="logo-colored-1" transform="translate(30.864 16.341)">
        <path id="Path" d="M0,48.441v48.8l7.454-4.5V44Z" transform="translate(0 -34.629)" fill="rgba(0,0,0,0)" stroke="#979797" stroke-linecap="round" stroke-linejoin="round" stroke-width="0.7" fill-rule="evenodd"/>
        <path id="Path-2" data-name="Path" d="M0,48.8V0L7.454,4.5V53.243Z" transform="translate(14.908 62.613) rotate(180)" fill="#fff" stroke="#000" stroke-linecap="round" stroke-linejoin="round" stroke-width="0.7" fill-rule="evenodd"/>
        <path id="Combined-Shape" d="M0,113.742V65l7.454,4.441v39.832l7.454,4.469v.06l-7.454,4.441Z" transform="translate(0 -51.157)" fill="#fff" stroke="#000" stroke-linecap="round" stroke-linejoin="round" stroke-width="0.7" fill-rule="evenodd"/>
        <path id="Combined-Shape-2" data-name="Combined-Shape" d="M109,53.243V4.441L116.454,0l7.454,4.441v48.8l-7.454-4.5Z" transform="translate(-85.786)" fill="#fff" stroke="#000" stroke-linecap="round" stroke-linejoin="round" stroke-width="0.7" fill-rule="evenodd"/>
        <path id="Path-3" data-name="Path" d="M0,48.8V0L7.454,4.5V53.243Z" transform="translate(30.668 57.715) rotate(180)" fill="#fff" stroke="#000" stroke-linecap="round" stroke-linejoin="round" stroke-width="0.7" fill-rule="evenodd"/>
        <path id="Combined-Shape-3" data-name="Combined-Shape" d="M65.651,21V69.8L58.2,74.243v-22.1L42.47,61,35,56.748,58.2,43.286V25.5Z" transform="translate(-27.546 -16.528)" fill="#ac82eb" stroke="#000" stroke-linecap="round" stroke-linejoin="round" stroke-width="0.7" fill-rule="evenodd"/>
        <path id="Combined-Shape-4" data-name="Combined-Shape" d="M30.651,0V48.8L23.2,53.243v-22.1L7.47,40,0,35.748,23.2,22.286V4.5Z" transform="translate(30.651 62.613) rotate(180)" fill="#832df4" stroke="#000" stroke-linecap="round" stroke-linejoin="round" stroke-width="0.7" fill-rule="evenodd"/>
      </g>
    </g>
  </g>
</svg>
