<svg xmlns="http://www.w3.org/2000/svg" xmlns:xlink="http://www.w3.org/1999/xlink" width="68.8" height="40" viewBox="0 0 68.8 40">
  <defs>
    <clipPath id="clip-hack-logo-69x40-purple-transparent-background">
      <rect width="68.8" height="40"/>
    </clipPath>
  </defs>
  <g id="hack-logo-69x40-purple-transparent-background" clip-path="url(#clip-hack-logo-69x40-purple-transparent-background)">
    <rect width="68.8" height="40" fill="rgba(255,255,255,0)"/>
    <g id="Group_123" data-name="Group 123">
      <g id="Hhack" transform="translate(6.322 6.456)">
        <path id="Path_151" data-name="Path 151" d="M-76.855-52.094V-65.557l1.683-.278v4.679a4.782,4.782,0,0,1,.913-.248,5.727,5.727,0,0,1,.994-.089,4.585,4.585,0,0,1,1.795.307,2.788,2.788,0,0,1,1.146.863,3.456,3.456,0,0,1,.608,1.328,7.426,7.426,0,0,1,.183,1.705v5.195H-71.2v-4.838a4.417,4.417,0,0,0-.487-2.409,1.973,1.973,0,0,0-1.744-.7,4.763,4.763,0,0,0-1.024.109,4.1,4.1,0,0,0-.72.208v7.634Zm12.249-1.17q.629,0,1.126-.04t.821-.1v-2.736a4.854,4.854,0,0,0-.781-.159,7.455,7.455,0,0,0-.963-.059,5.93,5.93,0,0,0-.913.069,2.569,2.569,0,0,0-.791.248,1.69,1.69,0,0,0-.568.466,1.145,1.145,0,0,0-.223.724,1.3,1.3,0,0,0,.619,1.239A3.426,3.426,0,0,0-64.606-53.264Zm-.162-8.248a5.305,5.305,0,0,1,1.774.258,3.028,3.028,0,0,1,1.166.714,2.529,2.529,0,0,1,.629,1.11A5.3,5.3,0,0,1-61.016-58v5.75q-.588.1-1.551.238a13.85,13.85,0,0,1-1.977.139,8.618,8.618,0,0,1-1.5-.129,3.955,3.955,0,0,1-1.3-.456,2.513,2.513,0,0,1-.913-.9,2.818,2.818,0,0,1-.345-1.467,2.4,2.4,0,0,1,.355-1.338,2.808,2.808,0,0,1,.913-.882,4.022,4.022,0,0,1,1.278-.486,7.149,7.149,0,0,1,1.45-.149,8.7,8.7,0,0,1,1.947.218v-.456a3.484,3.484,0,0,0-.091-.8,1.765,1.765,0,0,0-.345-.7,1.749,1.749,0,0,0-.69-.506,2.863,2.863,0,0,0-1.126-.188,8.533,8.533,0,0,0-1.521.119,7.226,7.226,0,0,0-.994.238l-.2-1.348a4.619,4.619,0,0,1,1.146-.278A11.676,11.676,0,0,1-64.768-61.513Zm4.5,4.838a5.287,5.287,0,0,1,.406-2.161,4.109,4.109,0,0,1,1.115-1.507,4.654,4.654,0,0,1,1.653-.882,6.885,6.885,0,0,1,2.018-.287,10.5,10.5,0,0,1,1.369.089,8.84,8.84,0,0,1,1.45.327l-.385,1.408A5.862,5.862,0,0,0-53.868-60a9.106,9.106,0,0,0-1.126-.069,4.924,4.924,0,0,0-1.379.188,3,3,0,0,0-1.126.595,2.881,2.881,0,0,0-.76,1.051,3.848,3.848,0,0,0-.284,1.556,3.839,3.839,0,0,0,.264,1.5,2.72,2.72,0,0,0,.74,1.031,3.1,3.1,0,0,0,1.146.6,5.2,5.2,0,0,0,1.48.2,10.823,10.823,0,0,0,1.247-.069,6.513,6.513,0,0,0,1.308-.307l.243,1.368a7.422,7.422,0,0,1-1.44.367,10.73,10.73,0,0,1-1.582.109,6.679,6.679,0,0,1-2.079-.307,4.586,4.586,0,0,1-1.622-.9,3.99,3.99,0,0,1-1.055-1.5A5.415,5.415,0,0,1-60.266-56.675Zm12.351-.476q.548.4,1.237,1t1.369,1.3q.679.694,1.288,1.418a10.289,10.289,0,0,1,.973,1.338h-1.987a9.773,9.773,0,0,0-.953-1.259Q-46.557-54-47.2-54.593t-1.278-1.091q-.639-.5-1.146-.833v4.422H-51.3V-65.557l1.683-.278v8.387q1.115-.952,2.231-1.894a19.126,19.126,0,0,0,2.008-1.953h1.967a21.015,21.015,0,0,1-2.1,2.082Q-46.739-58.142-47.915-57.15Z" transform="translate(98.391 72.132)" fill="#832df4"/>
        <g id="logo-colored-1" transform="translate(0 0)">
          <path id="Path" d="M0,45.754V65.034l2.945-1.778V44Z" transform="translate(0 -40.298)" fill="rgba(0,0,0,0)" stroke="#979797" stroke-linecap="round" stroke-linejoin="round" stroke-width="0.25" fill-rule="evenodd"/>
          <path id="Path-2" data-name="Path" d="M0,19.279V0L2.945,1.778V21.034Z" transform="translate(5.889 24.736) rotate(180)" fill="#fff" stroke="#000" stroke-linecap="round" stroke-linejoin="round" stroke-width="0.25" fill-rule="evenodd"/>
          <path id="Combined-Shape" d="M0,84.256V65l2.945,1.754V82.49l2.945,1.765v.024L2.945,86.034Z" transform="translate(0 -59.531)" fill="#fff" stroke="#000" stroke-linecap="round" stroke-linejoin="round" stroke-width="0.25" fill-rule="evenodd"/>
          <path id="Combined-Shape-2" data-name="Combined-Shape" d="M109,21.034V1.754L111.945,0l2.945,1.754V21.034l-2.945-1.778Z" transform="translate(-99.829)" fill="#fff" stroke="#000" stroke-linecap="round" stroke-linejoin="round" stroke-width="0.25" fill-rule="evenodd"/>
          <path id="Path-3" data-name="Path" d="M0,19.279V0L2.945,1.778V21.034Z" transform="translate(12.115 22.8) rotate(180)" fill="#fff" stroke="#000" stroke-linecap="round" stroke-linejoin="round" stroke-width="0.25" fill-rule="evenodd"/>
          <path id="Combined-Shape-3" data-name="Combined-Shape" d="M47.109,21V40.279l-2.945,1.754V33.3l-6.213,3.5L35,35.122,44.164,29.8V22.778Z" transform="translate(-32.055 -19.233)" fill="#ac82eb" stroke="#000" stroke-linecap="round" stroke-linejoin="round" stroke-width="0.25" fill-rule="evenodd"/>
          <path id="Combined-Shape-4" data-name="Combined-Shape" d="M12.109,0V19.279L9.164,21.034V12.3L2.951,15.8,0,14.122,9.164,8.8V1.778Z" transform="translate(12.109 24.736) rotate(180)" fill="#832df4" stroke="#000" stroke-linecap="round" stroke-linejoin="round" stroke-width="0.25" fill-rule="evenodd"/>
        </g>
      </g>
    </g>
  </g>
</svg>
