<svg xmlns="http://www.w3.org/2000/svg" xmlns:xlink="http://www.w3.org/1999/xlink" width="436" height="436" viewBox="0 0 436 436">
  <defs>
    <clipPath id="clip-hack-logomark-436x436-purple-transparent-background">
      <rect width="436" height="436"/>
    </clipPath>
  </defs>
  <g id="hack-logomark-436x436-purple-transparent-background" clip-path="url(#clip-hack-logomark-436x436-purple-transparent-background)">
    <rect width="436" height="436" fill="rgba(255,255,255,0)"/>
    <g id="Group_124" data-name="Group 124">
      <g id="logo-colored-1" transform="translate(135.003 71.478)">
        <path id="Path" d="M0,63.425V276.89L32.6,257.2V44Z" transform="translate(0 -3.011)" fill="rgba(0,0,0,0)" stroke="#979797" stroke-linecap="round" stroke-linejoin="round" stroke-width="3" fill-rule="evenodd"/>
        <path id="Path-2" data-name="Path" d="M0,213.465V0L32.6,19.688v213.2Z" transform="translate(65.209 273.879) rotate(180)" fill="#fff" stroke="#000" stroke-linecap="round" stroke-linejoin="round" stroke-width="3" fill-rule="evenodd"/>
        <path id="Combined-Shape" d="M0,278.2V65L32.6,84.425v174.23l32.6,19.548v.263L32.6,297.89Z" transform="translate(0 -4.448)" fill="#fff" stroke="#000" stroke-linecap="round" stroke-linejoin="round" stroke-width="3" fill-rule="evenodd"/>
        <path id="Combined-Shape-2" data-name="Combined-Shape" d="M109,232.89V19.425L141.6,0l32.6,19.425V232.89L141.6,213.2Z" transform="translate(-7.46)" fill="#fff" stroke="#000" stroke-linecap="round" stroke-linejoin="round" stroke-width="3" fill-rule="evenodd"/>
        <path id="Path-3" data-name="Path" d="M0,213.465V0L32.6,19.688v213.2Z" transform="translate(134.145 252.453) rotate(180)" fill="#fff" stroke="#000" stroke-linecap="round" stroke-linejoin="round" stroke-width="3" fill-rule="evenodd"/>
        <path id="Combined-Shape-3" data-name="Combined-Shape" d="M169.072,21V234.466l-32.6,19.425V157.219L67.676,195.952,35,177.366l101.467-58.885V40.688Z" transform="translate(-2.395 -1.437)" fill="#ac82eb" stroke="#000" stroke-linecap="round" stroke-linejoin="round" stroke-width="3" fill-rule="evenodd"/>
        <path id="Combined-Shape-4" data-name="Combined-Shape" d="M134.072,0V213.466l-32.6,19.425V136.219L32.676,174.952,0,156.366,101.467,97.481V19.688Z" transform="translate(134.072 273.879) rotate(180)" fill="#832df4" stroke="#000" stroke-linecap="round" stroke-linejoin="round" stroke-width="3" fill-rule="evenodd"/>
      </g>
    </g>
  </g>
</svg>
