<?xml version="1.0" encoding="UTF-8"?>
<!DOCTYPE svg PUBLIC "-//W3C//DTD SVG 1.1//EN" "http://www.w3.org/Graphics/SVG/1.1/DTD/svg11.dtd">
<!-- Creator: CorelDRAW 2017 -->
<svg xmlns="http://www.w3.org/2000/svg" xml:space="preserve" width="8.5in" height="11in" version="1.1" style="shape-rendering:geometricPrecision; text-rendering:geometricPrecision; image-rendering:optimizeQuality; fill-rule:evenodd; clip-rule:evenodd"
viewBox="0 0 8500 11000"
 xmlns:xlink="http://www.w3.org/1999/xlink">
 <defs>
  <style type="text/css">
   <![CDATA[
    .str0 {stroke:#1F1B20;stroke-width:166.67;stroke-linecap:round;stroke-linejoin:round;stroke-miterlimit:2.61313}
    .fil3 {fill:none}
    .fil0 {fill:none;fill-rule:nonzero}
    .fil1 {fill:#9A79B4}
    .fil2 {fill:#733F8F}
   ]]>
  </style>
 </defs>
 <g id="Layer_x0020_1">
  <metadata id="CorelCorpID_0Corel-Layer"/>
  <polygon class="fil0 str0" points="4125.57,2907.92 4125.57,7494.15 3425.23,7071.16 3425.23,2490.57 "/>
  <polygon class="fil0 str0" points="3425.23,7914.35 2724.88,7491.37 2724.88,2910.78 3425.23,3328.13 3425.23,7071.4 4125.57,7491.37 4125.57,7497.02 "/>
  <polygon class="fil0 str0" points="5615.76,1615.14 6316.1,2032.49 6316.1,6618.71 5631.85,7048.5 4915.41,6618.71 4915.41,2032.49 "/>
  <polygon class="fil0 str0" points="5615.76,2452.7 5615.76,7038.92 4915.41,6615.94 4915.41,2035.35 "/>
  <polygon class="fil1 str0" points="5613.08,4961.99 4129.78,5794.13 3425.23,5394.82 5613.08,4129.72 5613.08,2458.33 6316.1,2035.35 6316.1,6621.59 5613.08,7038.92 "/>
  <polygon class="fil2 str0" points="3427.91,4567.52 4911.2,3735.37 5615.76,4134.68 3427.91,5399.78 3427.91,7071.16 2724.88,7494.15 2724.88,2907.92 3427.91,2490.57 "/>
  <polygon class="fil3 str0" points="5615.76,4957.35 5615.76,7038.92 4915.41,6615.13 4915.41,5354.06 "/>
 </g>
</svg>
