<svg xmlns="http://www.w3.org/2000/svg" width="1268.966" height="605.691" viewBox="0 0 1268.966 605.691">
  <g id="Group_137" data-name="Group 137" transform="translate(-752.825 1585.529)">
    <path id="Path_193" data-name="Path 193" d="M1.65,20.725V-13.139H12.721q5.512,0,8.292,2.279t2.779,6.745a6.878,6.878,0,0,1-1.349,4.2,8.745,8.745,0,0,1-3.675,2.826,7.854,7.854,0,0,1,4.338,2.919A8.377,8.377,0,0,1,24.7,10.956a9.057,9.057,0,0,1-2.954,7.164q-2.954,2.6-8.35,2.6ZM6.116,4.886V17.073h7.373a7.1,7.1,0,0,0,4.919-1.616A5.677,5.677,0,0,0,20.21,11q0-6.117-6.652-6.117Zm0-3.582h6.745A7.07,7.07,0,0,0,17.547-.164,4.923,4.923,0,0,0,19.3-4.15a4.841,4.841,0,0,0-1.628-4.067,8,8,0,0,0-4.954-1.27H6.116ZM34.733,20.725h-4.3V-15h4.3ZM39.907,7.909A14.864,14.864,0,0,1,41.36,1.257,10.844,10.844,0,0,1,45.407-3.3a11.016,11.016,0,0,1,5.919-1.6,10.613,10.613,0,0,1,8.315,3.559q3.175,3.558,3.175,9.466v.3a14.993,14.993,0,0,1-1.407,6.594,10.684,10.684,0,0,1-4.024,4.547,11.143,11.143,0,0,1-6.012,1.628,10.586,10.586,0,0,1-8.292-3.559,13.621,13.621,0,0,1-3.175-9.42Zm4.326.512a10.766,10.766,0,0,0,1.942,6.722,6.581,6.581,0,0,0,10.408-.035q1.93-2.57,1.93-7.2A10.747,10.747,0,0,0,56.548,1.2a6.248,6.248,0,0,0-5.221-2.57,6.179,6.179,0,0,0-5.14,2.535Q44.233,3.7,44.233,8.421Zm33.5,9.257a6.2,6.2,0,0,0,4.024-1.4,4.91,4.91,0,0,0,1.907-3.489h4.07a7.8,7.8,0,0,1-1.489,4.117,9.8,9.8,0,0,1-3.663,3.117,10.57,10.57,0,0,1-4.849,1.163,10.367,10.367,0,0,1-8.175-3.431q-3.035-3.431-3.035-9.385V7.653a15.151,15.151,0,0,1,1.349-6.536,10.274,10.274,0,0,1,3.873-4.442,11,11,0,0,1,5.966-1.582,10.093,10.093,0,0,1,7.036,2.535,9.06,9.06,0,0,1,2.989,6.582h-4.07A5.93,5.93,0,0,0,81.816.2a5.752,5.752,0,0,0-4.105-1.57A6.022,6.022,0,0,0,72.629.99q-1.8,2.361-1.8,6.826V8.63a10.866,10.866,0,0,0,1.791,6.7A6.051,6.051,0,0,0,77.734,17.678ZM99.025,9.072l-2.7,2.814v8.838h-4.3V-15h4.3V6.607l2.3-2.768,7.838-8.28H111.7L101.909,6.072l10.931,14.653h-5.047ZM125.2,17.678a6.2,6.2,0,0,0,4.024-1.4,4.91,4.91,0,0,0,1.907-3.489h4.07a7.8,7.8,0,0,1-1.489,4.117,9.8,9.8,0,0,1-3.663,3.117A10.57,10.57,0,0,1,125.2,21.19a10.367,10.367,0,0,1-8.175-3.431q-3.035-3.431-3.035-9.385V7.653a15.151,15.151,0,0,1,1.349-6.536,10.275,10.275,0,0,1,3.873-4.442,11,11,0,0,1,5.966-1.582,10.093,10.093,0,0,1,7.036,2.535A9.06,9.06,0,0,1,135.2,4.211h-4.07A5.93,5.93,0,0,0,129.282.2a5.752,5.752,0,0,0-4.105-1.57A6.022,6.022,0,0,0,120.1.99q-1.8,2.361-1.8,6.826V8.63a10.866,10.866,0,0,0,1.791,6.7A6.051,6.051,0,0,0,125.2,17.678ZM143.77-1.394a9.148,9.148,0,0,1,7.443-3.512q7.978,0,8.047,9v16.63h-4.3V4.072A5.793,5.793,0,0,0,153.713.048a4.987,4.987,0,0,0-3.8-1.3,6.21,6.21,0,0,0-3.675,1.116,7.581,7.581,0,0,0-2.465,2.931V20.725h-4.3V-15h4.3Zm36.9,22.119a9.037,9.037,0,0,1-.6-2.651A9.6,9.6,0,0,1,172.9,21.19a8.883,8.883,0,0,1-6.105-2.1,6.81,6.81,0,0,1-2.384-5.338A7.114,7.114,0,0,1,167.4,7.642q2.989-2.175,8.408-2.175h4.186V3.49A4.832,4.832,0,0,0,178.644-.1a5.421,5.421,0,0,0-3.977-1.337,6.274,6.274,0,0,0-3.861,1.163,3.427,3.427,0,0,0-1.558,2.814h-4.326a5.938,5.938,0,0,1,1.337-3.64,9.127,9.127,0,0,1,3.628-2.779,12.206,12.206,0,0,1,5.035-1.023,9.949,9.949,0,0,1,6.815,2.175A7.845,7.845,0,0,1,184.3,3.258V14.84a14.16,14.16,0,0,0,.884,5.512v.372Zm-7.14-3.279a7.562,7.562,0,0,0,3.838-1.047,6.331,6.331,0,0,0,2.628-2.721V8.514h-3.372q-7.908,0-7.908,4.628a3.917,3.917,0,0,0,1.349,3.163A5.185,5.185,0,0,0,173.527,17.445Zm21.617,3.279h-4.3V-4.441h4.3Zm-4.652-31.84a2.568,2.568,0,0,1,.64-1.768,2.4,2.4,0,0,1,1.9-.721,2.439,2.439,0,0,1,1.907.721,2.541,2.541,0,0,1,.651,1.768,2.458,2.458,0,0,1-.651,1.744,2.483,2.483,0,0,1-1.907.7,2.445,2.445,0,0,1-1.9-.7A2.483,2.483,0,0,1,190.493-11.116Zm15.035,6.675.14,3.163A9.17,9.17,0,0,1,213.2-4.906q7.978,0,8.047,9v16.63h-4.3V4.072A5.793,5.793,0,0,0,215.7.048a4.987,4.987,0,0,0-3.8-1.3,6.21,6.21,0,0,0-3.675,1.116,7.581,7.581,0,0,0-2.465,2.931V20.725h-4.3V-4.441Zm33.535,25.165V-13.139h9.559a15.388,15.388,0,0,1,7.815,1.954,13.213,13.213,0,0,1,5.245,5.559,18.093,18.093,0,0,1,1.872,8.28V4.816a18.157,18.157,0,0,1-1.849,8.4,13.006,13.006,0,0,1-5.28,5.535,16.368,16.368,0,0,1-7.989,1.977Zm4.466-30.212V17.073h4.7a10.222,10.222,0,0,0,8.036-3.212q2.872-3.212,2.872-9.149V2.733q0-5.773-2.71-8.974a9.642,9.642,0,0,0-7.687-3.247ZM279.494,21.19a11,11,0,0,1-8.326-3.361,12.474,12.474,0,0,1-3.21-8.989V8.049a15.1,15.1,0,0,1,1.43-6.687,11.158,11.158,0,0,1,4-4.605,10.057,10.057,0,0,1,5.57-1.663,9.425,9.425,0,0,1,7.629,3.233q2.721,3.233,2.721,9.257V9.375H272.261a8.945,8.945,0,0,0,2.175,6.012,6.836,6.836,0,0,0,5.291,2.291,7.494,7.494,0,0,0,3.861-.93,9.7,9.7,0,0,0,2.768-2.465l2.628,2.047Q285.821,21.19,279.494,21.19Zm-.535-22.56a5.739,5.739,0,0,0-4.373,1.9A9.214,9.214,0,0,0,272.4,5.839h12.606V5.514A8.2,8.2,0,0,0,283.239.432,5.4,5.4,0,0,0,278.96-1.371Zm22.756,16.257,6.233-19.328h4.4l-9.024,25.165h-3.279L290.924-4.441h4.4Zm24.338,6.3a11,11,0,0,1-8.326-3.361,12.474,12.474,0,0,1-3.21-8.989V8.049a15.1,15.1,0,0,1,1.43-6.687,11.157,11.157,0,0,1,4-4.605,10.057,10.057,0,0,1,5.57-1.663,9.425,9.425,0,0,1,7.629,3.233q2.721,3.233,2.721,9.257V9.375H318.821A8.945,8.945,0,0,0,321,15.387a6.835,6.835,0,0,0,5.291,2.291,7.494,7.494,0,0,0,3.861-.93,9.7,9.7,0,0,0,2.768-2.465l2.628,2.047Q332.38,21.19,326.054,21.19Zm-.535-22.56a5.74,5.74,0,0,0-4.373,1.9,9.214,9.214,0,0,0-2.186,5.314h12.606V5.514A8.2,8.2,0,0,0,329.8.432,5.4,5.4,0,0,0,325.519-1.371Zm19.43,22.1h-4.3V-15h4.3Zm5.173-12.815a14.865,14.865,0,0,1,1.454-6.652A10.844,10.844,0,0,1,355.623-3.3a11.017,11.017,0,0,1,5.919-1.6,10.612,10.612,0,0,1,8.315,3.559q3.175,3.558,3.175,9.466v.3a14.994,14.994,0,0,1-1.407,6.594,10.684,10.684,0,0,1-4.024,4.547,11.143,11.143,0,0,1-6.012,1.628,10.586,10.586,0,0,1-8.292-3.559,13.622,13.622,0,0,1-3.175-9.42Zm4.326.512a10.766,10.766,0,0,0,1.942,6.722,6.581,6.581,0,0,0,10.408-.035q1.93-2.57,1.93-7.2a10.747,10.747,0,0,0-1.965-6.71,6.248,6.248,0,0,0-5.221-2.57,6.179,6.179,0,0,0-5.14,2.535Q354.448,3.7,354.448,8.421Zm44.666,0a15.069,15.069,0,0,1-2.628,9.257,8.423,8.423,0,0,1-7.117,3.512,9.229,9.229,0,0,1-7.21-2.907V30.4h-4.3V-4.441h3.931L382-1.65a8.864,8.864,0,0,1,7.3-3.256,8.581,8.581,0,0,1,7.175,3.419q2.64,3.419,2.64,9.513Zm-4.3-.488A11.119,11.119,0,0,0,393,1.211a5.844,5.844,0,0,0-4.977-2.465,6.325,6.325,0,0,0-5.861,3.465V14.236a6.337,6.337,0,0,0,5.908,3.442,5.816,5.816,0,0,0,4.919-2.454Q394.811,12.77,394.811,7.933ZM408.055-4.441l.116,2.791a9.294,9.294,0,0,1,7.466-3.256q5.28,0,7.187,4.047a9.533,9.533,0,0,1,3.268-2.931,9.652,9.652,0,0,1,4.756-1.116q8.28,0,8.42,8.768V20.725h-4.3V4.118A5.779,5.779,0,0,0,433.732.083q-1.233-1.337-4.14-1.337a5.706,5.706,0,0,0-3.977,1.43,5.8,5.8,0,0,0-1.837,3.849v16.7h-4.326V4.234q0-5.489-5.373-5.489a5.757,5.757,0,0,0-5.791,3.605V20.725h-4.3V-4.441Zm47.573,25.63a11,11,0,0,1-8.326-3.361,12.474,12.474,0,0,1-3.21-8.989V8.049a15.1,15.1,0,0,1,1.43-6.687,11.158,11.158,0,0,1,4-4.605,10.058,10.058,0,0,1,5.57-1.663,9.425,9.425,0,0,1,7.629,3.233q2.721,3.233,2.721,9.257V9.375H448.395a8.945,8.945,0,0,0,2.175,6.012,6.836,6.836,0,0,0,5.291,2.291,7.494,7.494,0,0,0,3.861-.93,9.7,9.7,0,0,0,2.768-2.465l2.628,2.047Q461.954,21.19,455.628,21.19Zm-.535-22.56a5.739,5.739,0,0,0-4.373,1.9,9.214,9.214,0,0,0-2.186,5.314H461.14V5.514A8.2,8.2,0,0,0,459.372.432,5.4,5.4,0,0,0,455.093-1.371Zm18.826-3.07.14,3.163a9.17,9.17,0,0,1,7.536-3.628q7.978,0,8.047,9v16.63h-4.3V4.072A5.793,5.793,0,0,0,484.094.048a4.986,4.986,0,0,0-3.8-1.3,6.21,6.21,0,0,0-3.675,1.116,7.582,7.582,0,0,0-2.465,2.931V20.725h-4.3V-4.441ZM501.4-10.534v6.094h4.7v3.326h-4.7V14.511a3.493,3.493,0,0,0,.628,2.27,2.643,2.643,0,0,0,2.14.757,10.418,10.418,0,0,0,2.047-.279v3.468a12.548,12.548,0,0,1-3.3.462,5.359,5.359,0,0,1-4.349-1.744,7.494,7.494,0,0,1-1.465-4.954V-1.115h-4.582V-4.441h4.582v-6.094ZM520.86,11.631a7.941,7.941,0,0,1,1.361-4.489,20.734,20.734,0,0,1,5.2-4.768,22.455,22.455,0,0,1-3.024-4.419,7.932,7.932,0,0,1-.767-3.326,7.983,7.983,0,0,1,2.279-6.047,8.564,8.564,0,0,1,6.187-2.186,8.337,8.337,0,0,1,5.768,2.035,6.582,6.582,0,0,1,2.279,5.128,7.235,7.235,0,0,1-1.035,3.779,13.449,13.449,0,0,1-3.617,3.64L533,2.816l7.536,9A14.28,14.28,0,0,0,542.118,5.1H546a16.215,16.215,0,0,1-2.861,9.838l4.838,5.791h-5.163l-2.256-2.675a11.792,11.792,0,0,1-4.035,2.337,14.283,14.283,0,0,1-4.71.8,11.637,11.637,0,0,1-7.954-2.628A8.766,8.766,0,0,1,520.86,11.631Zm10.955,6.047a9.056,9.056,0,0,0,6.256-2.6l-8.257-9.885-.768.558q-3.884,2.861-3.884,5.884a5.71,5.71,0,0,0,1.779,4.4A6.883,6.883,0,0,0,531.814,17.678ZM527.93-5.511q0,2.233,2.744,5.582l2.745-1.93a7.3,7.3,0,0,0,2.163-2.128,4.849,4.849,0,0,0,.582-2.454A3.326,3.326,0,0,0,535-9.034a4.244,4.244,0,0,0-2.93-1.035,3.792,3.792,0,0,0-3.024,1.291A4.817,4.817,0,0,0,527.93-5.511Zm59.677,15.49a12.459,12.459,0,0,1-3.965,8.292,13,13,0,0,1-8.873,2.919,11.933,11.933,0,0,1-9.617-4.3q-3.617-4.3-3.617-11.513V2.118a19.294,19.294,0,0,1,1.686-8.3,12.6,12.6,0,0,1,4.779-5.5,13.308,13.308,0,0,1,7.164-1.919,12.236,12.236,0,0,1,8.652,3.012,12.608,12.608,0,0,1,3.791,8.338h-4.489q-.582-4.059-2.524-5.879a7.635,7.635,0,0,0-5.431-1.82,7.99,7.99,0,0,0-6.71,3.166q-2.43,3.166-2.43,9.008V5.5q0,5.517,2.3,8.776a7.44,7.44,0,0,0,6.443,3.259,8.593,8.593,0,0,0,5.71-1.686q1.988-1.686,2.64-5.873Zm3.708-2.07a14.864,14.864,0,0,1,1.454-6.652A10.846,10.846,0,0,1,596.816-3.3a11.016,11.016,0,0,1,5.919-1.6,10.613,10.613,0,0,1,8.315,3.559q3.174,3.558,3.175,9.466v.3a14.993,14.993,0,0,1-1.407,6.594,10.684,10.684,0,0,1-4.023,4.547,11.144,11.144,0,0,1-6.012,1.628,10.586,10.586,0,0,1-8.292-3.559,13.621,13.621,0,0,1-3.175-9.42Zm4.326.512a10.765,10.765,0,0,0,1.942,6.722,6.581,6.581,0,0,0,10.408-.035q1.93-2.57,1.93-7.2a10.747,10.747,0,0,0-1.965-6.71,6.248,6.248,0,0,0-5.221-2.57,6.178,6.178,0,0,0-5.14,2.535Q595.641,3.7,595.641,8.421ZM623.119-4.441l.14,3.163a9.17,9.17,0,0,1,7.536-3.628q7.977,0,8.047,9v16.63h-4.3V4.072A5.793,5.793,0,0,0,633.294.048a4.986,4.986,0,0,0-3.8-1.3,6.21,6.21,0,0,0-3.675,1.116,7.579,7.579,0,0,0-2.465,2.931V20.725h-4.3V-4.441Zm36.293,18.49a3.168,3.168,0,0,0-1.314-2.71,12.65,12.65,0,0,0-4.582-1.663A21.666,21.666,0,0,1,648.329,8a7.38,7.38,0,0,1-2.837-2.326,5.564,5.564,0,0,1-.919-3.21,6.528,6.528,0,0,1,2.617-5.233,10.219,10.219,0,0,1,6.687-2.14,10.515,10.515,0,0,1,6.943,2.21,7.017,7.017,0,0,1,2.663,5.652h-4.326a3.884,3.884,0,0,0-1.5-3.047,5.621,5.621,0,0,0-3.779-1.279A5.883,5.883,0,0,0,650.2-.347a3.221,3.221,0,0,0-1.326,2.675,2.61,2.61,0,0,0,1.233,2.349,15.164,15.164,0,0,0,4.454,1.512,23.207,23.207,0,0,1,5.221,1.721,7.617,7.617,0,0,1,2.965,2.407,5.92,5.92,0,0,1,.965,3.431,6.44,6.44,0,0,1-2.7,5.408,11.317,11.317,0,0,1-7,2.035,12.671,12.671,0,0,1-5.349-1.07,8.7,8.7,0,0,1-3.64-2.989,7.2,7.2,0,0,1-1.314-4.152h4.3a4.454,4.454,0,0,0,1.733,3.431,6.723,6.723,0,0,0,4.268,1.268,6.939,6.939,0,0,0,3.919-.988A3.037,3.037,0,0,0,659.411,14.049Zm24.873,4.186q-2.512,2.954-7.373,2.954a7.823,7.823,0,0,1-6.128-2.337q-2.105-2.337-2.128-6.919V-4.441h4.3V11.817q0,5.722,4.652,5.722,4.931,0,6.559-3.675v-18.3h4.3V20.725h-4.093Zm14.825,2.489h-4.3V-15h4.3ZM711.26-10.534v6.094h4.7v3.326h-4.7V14.511a3.494,3.494,0,0,0,.628,2.27,2.643,2.643,0,0,0,2.14.757,10.414,10.414,0,0,0,2.047-.279v3.468a12.546,12.546,0,0,1-3.3.462,5.358,5.358,0,0,1-4.349-1.744,7.493,7.493,0,0,1-1.465-4.954V-1.115h-4.582V-4.441h4.582v-6.094Zm13.825,31.259h-4.3V-4.441h4.3Zm-4.652-31.84a2.568,2.568,0,0,1,.64-1.768,2.4,2.4,0,0,1,1.9-.721,2.438,2.438,0,0,1,1.907.721,2.541,2.541,0,0,1,.651,1.768,2.457,2.457,0,0,1-.651,1.744,2.482,2.482,0,0,1-1.907.7,2.445,2.445,0,0,1-1.9-.7A2.483,2.483,0,0,1,720.434-11.116Zm15.035,6.675.139,3.163a9.171,9.171,0,0,1,7.536-3.628q7.977,0,8.047,9v16.63h-4.3V4.072A5.793,5.793,0,0,0,745.644.048a4.986,4.986,0,0,0-3.8-1.3,6.209,6.209,0,0,0-3.675,1.116A7.579,7.579,0,0,0,735.7,2.792V20.725h-4.3V-4.441ZM756.085,7.933q0-5.884,2.721-9.361a8.7,8.7,0,0,1,7.21-3.477A8.657,8.657,0,0,1,773.2-1.65l.209-2.791h3.931V20.12a10.238,10.238,0,0,1-2.9,7.7,10.685,10.685,0,0,1-7.78,2.814,12.943,12.943,0,0,1-5.326-1.163,9.168,9.168,0,0,1-3.977-3.186L759.6,23.7a8.414,8.414,0,0,0,6.768,3.419,6.592,6.592,0,0,0,4.9-1.768,6.756,6.756,0,0,0,1.756-4.977V18.213a8.843,8.843,0,0,1-7.047,2.977,8.6,8.6,0,0,1-7.152-3.559Q756.085,14.073,756.085,7.933Zm4.326.488a11.283,11.283,0,0,0,1.744,6.687,5.668,5.668,0,0,0,4.884,2.43,6.3,6.3,0,0,0,5.977-3.7V2.351a6.376,6.376,0,0,0-5.931-3.605,5.719,5.719,0,0,0-4.907,2.442Q760.411,3.63,760.411,8.421Z" transform="translate(1244.448 -1142.216)" fill="#832df4"/>
    <path id="Path_151" data-name="Path 151" d="M-76.855,246.124V-59.533l38.215-6.3V40.4a108.587,108.587,0,0,1,20.719-5.627A130.025,130.025,0,0,1,4.64,32.75q24.4,0,40.747,6.978T71.4,59.309A78.461,78.461,0,0,1,85.213,89.469a168.6,168.6,0,0,1,4.144,38.714V246.124H51.6V136.286q0-38.714-11.05-54.694T.956,65.611A108.146,108.146,0,0,0-22.3,68.087q-11.28,2.476-16.345,4.727V246.124ZM201.24,219.565q14.273,0,25.553-.9t18.647-2.251V154.292a110.216,110.216,0,0,0-17.726-3.6,169.268,169.268,0,0,0-21.87-1.35,134.62,134.62,0,0,0-20.719,1.576,58.326,58.326,0,0,0-17.956,5.627,38.374,38.374,0,0,0-12.892,10.579q-5.065,6.527-5.065,16.431,0,20.257,14.043,28.135T201.24,219.565ZM197.556,32.3q23.942,0,40.287,5.852t26.474,16.206A57.415,57.415,0,0,1,278.59,79.566a120.314,120.314,0,0,1,4.144,32.411V242.523q-13.352,2.251-35.222,5.4a314.44,314.44,0,0,1-44.891,3.151,195.638,195.638,0,0,1-34.071-2.926A89.792,89.792,0,0,1,139.083,237.8a57.063,57.063,0,0,1-20.719-20.482Q110.537,204.26,110.537,184q0-18.006,8.057-30.386a63.761,63.761,0,0,1,20.719-20.032,91.319,91.319,0,0,1,29.007-11.029,162.325,162.325,0,0,1,32.92-3.376,197.522,197.522,0,0,1,44.2,4.952V113.778a79.108,79.108,0,0,0-2.072-18.231,38.924,38.924,0,0,0-23.481-27.46q-9.9-4.276-25.553-4.276a193.721,193.721,0,0,0-34.532,2.7,164.022,164.022,0,0,0-22.561,5.4l-4.6-30.611q7.827-3.6,26.014-6.3A265.115,265.115,0,0,1,197.556,32.3ZM299.77,142.138q0-28.36,9.208-49.067A93.289,93.289,0,0,1,334.3,58.859a105.656,105.656,0,0,1,37.524-20.032A156.314,156.314,0,0,1,417.638,32.3a238.418,238.418,0,0,1,31.078,2.026,200.715,200.715,0,0,1,32.92,7.428l-8.748,31.961a133.083,133.083,0,0,0-27.855-6.977,206.751,206.751,0,0,0-25.553-1.576,111.8,111.8,0,0,0-31.309,4.277,68.046,68.046,0,0,0-25.553,13.5A65.406,65.406,0,0,0,345.352,106.8q-6.446,14.63-6.446,35.337,0,19.807,5.985,33.987A61.748,61.748,0,0,0,361.7,199.533a70.255,70.255,0,0,0,26.014,13.73,118.03,118.03,0,0,0,33.611,4.5,245.753,245.753,0,0,0,28.316-1.576,147.872,147.872,0,0,0,29.7-6.977l5.525,31.061a168.5,168.5,0,0,1-32.69,8.328,243.6,243.6,0,0,1-35.913,2.476q-25.784,0-47.193-6.977a104.123,104.123,0,0,1-36.834-20.482,90.586,90.586,0,0,1-23.942-33.987Q299.77,169.147,299.77,142.138Zm280.4-10.8q12.431,9,28.086,22.733t31.078,29.485q15.424,15.756,29.237,32.186a233.61,233.61,0,0,1,22.1,30.386H645.546a221.858,221.858,0,0,0-21.64-28.585q-12.892-14.63-27.4-28.135T567.5,164.646q-14.5-11.254-26.014-18.907V246.124H503.276V-59.533l38.215-6.3V124.582q25.323-21.608,50.646-42.99a434.225,434.225,0,0,0,45.582-44.341H682.38a477.136,477.136,0,0,1-47.654,47.267Q606.871,108.826,580.167,131.334Z" transform="translate(1321.448 -1426.332)" fill="#832df4"/>
    <g id="logo-colored-1" transform="translate(754.825 -1583.529)">
      <path id="Path" d="M0,83.83v437.7l66.855-40.369V44Z" transform="translate(0 40.046)" fill="rgba(0,0,0,0)" fill-rule="evenodd"/>
      <path id="Path_-_Outline" data-name="Path - Outline" d="M66.855,42a2,2,0,0,1,2,2V481.164a2,2,0,0,1-.966,1.712L1.034,523.245a2,2,0,0,1-2.017.03A2,2,0,0,1-2,521.533V83.83a2,2,0,0,1,.976-1.718l66.855-39.83A2,2,0,0,1,66.855,42Zm-2,438.035V47.52L2,84.967V517.989Z" transform="translate(0 40.046)" fill="#979797"/>
      <path id="Path-2" data-name="Path" d="M0,437.7V0L66.855,40.369V477.533Z" transform="translate(133.709 561.578) rotate(180)" fill="#fff" fill-rule="evenodd"/>
      <path id="Path_-_Outline-2" data-name="Path - Outline" d="M66.855,479.533a2,2,0,0,1-1.024-.282L-1.024,439.42A2,2,0,0,1-2,437.7V0A2,2,0,0,1-.983-1.742a2,2,0,0,1,2.017.03L67.888,38.657a2,2,0,0,1,.966,1.712V477.533a2,2,0,0,1-2,2ZM2,436.566l62.855,37.447V41.5L2,3.544Z" transform="translate(133.709 561.578) rotate(180)"/>
      <path id="Combined-Shape" d="M0,502.164V65l66.855,39.83V462.082l66.855,40.082v.539l-66.855,39.83Z" transform="translate(0 59.159)" fill="#fff" fill-rule="evenodd"/>
      <path id="Combined-Shape_-_Outline" data-name="Combined-Shape - Outline" d="M66.855,544.532a2,2,0,0,1-1.034-.288L-1.034,503.876A2,2,0,0,1-2,502.164V65A2,2,0,0,1-.988,63.261a2,2,0,0,1,2.012.021l66.855,39.83a2,2,0,0,1,.976,1.718V460.949l65.883,39.5a2,2,0,0,1,.972,1.715v.539a2,2,0,0,1-.976,1.718l-66.855,39.83A2,2,0,0,1,66.855,544.532ZM2,501.035,66.861,540.2l63.4-37.772L65.826,463.8a2,2,0,0,1-.972-1.715V105.967L2,68.52Z" transform="translate(0 59.159)"/>
      <path id="Combined-Shape-2" data-name="Combined-Shape" d="M109,477.533V39.83L175.854,0l66.855,39.83v437.7l-66.855-40.369Z" transform="translate(99.204)" fill="#fff" fill-rule="evenodd"/>
      <path id="Combined-Shape_-_Outline-2" data-name="Combined-Shape - Outline" d="M242.709,479.533a2,2,0,0,1-1.034-.288L175.854,439.5l-65.821,39.745A2,2,0,0,1,107,477.533V39.83a2,2,0,0,1,.976-1.718l66.854-39.83a2,2,0,0,1,2.047,0l66.855,39.83a2,2,0,0,1,.976,1.718v437.7a2,2,0,0,1-2,2Zm-66.855-44.369a2,2,0,0,1,1.034.288l63.821,38.537V40.967L175.854,2.328,111,40.967V473.989l63.821-38.537A2,2,0,0,1,175.854,435.164Z" transform="translate(99.204)"/>
      <path id="Path-3" data-name="Path" d="M0,437.7V0L66.855,40.369V477.533Z" transform="translate(275.059 517.645) rotate(180)" fill="#fff" fill-rule="evenodd"/>
      <path id="Path_-_Outline-3" data-name="Path - Outline" d="M66.855,479.533a2,2,0,0,1-1.024-.282L-1.024,439.42A2,2,0,0,1-2,437.7V0A2,2,0,0,1-.983-1.742a2,2,0,0,1,2.017.03L67.888,38.657a2,2,0,0,1,.966,1.712V477.533a2,2,0,0,1-2,2ZM2,436.566l62.854,37.447V41.5L2,3.544Z" transform="translate(275.059 517.645) rotate(180)"/>
      <path id="Combined-Shape-3" data-name="Combined-Shape" d="M309.91,21V458.7l-66.855,39.83,0-198.22L102,379.732,35,341.623,243.053,220.882l0-159.513Z" transform="translate(31.855 19.113)" fill="#ac82eb" fill-rule="evenodd"/>
      <path id="Combined-Shape_-_Outline-3" data-name="Combined-Shape - Outline" d="M309.91,19a2,2,0,0,1,2,2V458.7a2,2,0,0,1-.976,1.718l-66.855,39.83a2,2,0,0,1-3.024-1.718l0-194.8L102.981,381.475a2,2,0,0,1-1.97,0l-67-38.109A2,2,0,0,1,34,339.893L241.053,219.73l0-158.361a2,2,0,0,1,.966-1.712l66.855-40.369A2,2,0,0,1,309.91,19Zm-2,438.566V24.544L245.055,62.5l0,158.384a2,2,0,0,1-1,1.73L39.015,341.606l62.99,35.828L242.072,298.57a2,2,0,0,1,2.981,1.743l0,194.7Z" transform="translate(31.855 19.113)"/>
      <path id="Combined-Shape-4" data-name="Combined-Shape" d="M274.91,0V437.7l-66.854,39.83,0-198.22L67,358.732,0,320.623,208.053,199.882l0-159.513Z" transform="translate(274.91 561.578) rotate(180)" fill="#832df4" fill-rule="evenodd"/>
      <path id="Combined-Shape_-_Outline-4" data-name="Combined-Shape - Outline" d="M274.91-2a2,2,0,0,1,.983.258A2,2,0,0,1,276.91,0V437.7a2,2,0,0,1-.976,1.718l-66.854,39.83a2,2,0,0,1-3.024-1.718l0-194.8L67.981,360.475a2,2,0,0,1-1.97,0l-67-38.109A2,2,0,0,1-2,320.632a2,2,0,0,1,1-1.738L206.053,198.73l0-158.361a2,2,0,0,1,.966-1.712L273.876-1.712A2,2,0,0,1,274.91-2Zm-2,438.566V3.544L210.055,41.5l0,158.384a2,2,0,0,1-1,1.73L4.015,320.606l62.991,35.828L207.072,277.57a2,2,0,0,1,2.981,1.743l0,194.7Z" transform="translate(274.91 561.578) rotate(180)"/>
    </g>
  </g>
</svg>
