<svg xmlns="http://www.w3.org/2000/svg" xmlns:xlink="http://www.w3.org/1999/xlink" width="754" height="436" viewBox="0 0 754 436">
  <defs>
    <clipPath id="clip-hack-logo-slogan-754x436-purple-transparent-background">
      <rect width="754" height="436"/>
    </clipPath>
  </defs>
  <g id="hack-logo-slogan-754x436-purple-transparent-background" clip-path="url(#clip-hack-logo-slogan-754x436-purple-transparent-background)">
    <rect width="754" height="436" fill="rgba(255,255,255,0)"/>
    <g id="Group_121" data-name="Group 121" transform="translate(1)">
      <g id="Group_112" data-name="Group 112" transform="translate(-650 -118.901)">
        <path id="Path_193" data-name="Path 193" d="M1.65,2.314V-14.1H7.016a6.229,6.229,0,0,1,4.019,1.1,3.981,3.981,0,0,1,1.347,3.269,3.334,3.334,0,0,1-.654,2.035A4.238,4.238,0,0,1,9.947-6.32a3.806,3.806,0,0,1,2.1,1.415,4.06,4.06,0,0,1,.772,2.486A4.39,4.39,0,0,1,11.39,1.052,5.92,5.92,0,0,1,7.343,2.314ZM3.815-5.362V.545H7.388A3.441,3.441,0,0,0,9.772-.239,2.752,2.752,0,0,0,10.646-2.4q0-2.965-3.224-2.965Zm0-1.736H7.084A3.427,3.427,0,0,0,9.355-7.81a2.386,2.386,0,0,0,.851-1.932,2.346,2.346,0,0,0-.789-1.971,3.875,3.875,0,0,0-2.4-.616h-3.2Zm13.87,9.412H15.6V-15h2.085ZM20.192-3.9a7.2,7.2,0,0,1,.7-3.224A5.256,5.256,0,0,1,22.858-9.33a5.339,5.339,0,0,1,2.869-.778,5.144,5.144,0,0,1,4.03,1.725A6.635,6.635,0,0,1,31.295-3.8v.147a7.267,7.267,0,0,1-.682,3.2,5.178,5.178,0,0,1-1.95,2.2,5.4,5.4,0,0,1-2.914.789A5.131,5.131,0,0,1,21.73.815,6.6,6.6,0,0,1,20.192-3.75Zm2.1.248A5.218,5.218,0,0,0,23.23-.391,3.012,3.012,0,0,0,25.749.838,2.994,2.994,0,0,0,28.274-.408,5.706,5.706,0,0,0,29.21-3.9a5.209,5.209,0,0,0-.953-3.252,3.028,3.028,0,0,0-2.531-1.246,3,3,0,0,0-2.491,1.229A5.663,5.663,0,0,0,22.288-3.649ZM38.525.838a3,3,0,0,0,1.95-.676A2.379,2.379,0,0,0,41.4-1.53h1.973a3.782,3.782,0,0,1-.721,2,4.751,4.751,0,0,1-1.775,1.51,5.123,5.123,0,0,1-2.35.564A5.024,5.024,0,0,1,34.563.877a6.622,6.622,0,0,1-1.471-4.548v-.349a7.343,7.343,0,0,1,.654-3.168,4.98,4.98,0,0,1,1.877-2.153,5.331,5.331,0,0,1,2.891-.767,4.892,4.892,0,0,1,3.41,1.229,4.391,4.391,0,0,1,1.448,3.19H41.4a2.874,2.874,0,0,0-.9-1.944,2.788,2.788,0,0,0-1.99-.761A2.919,2.919,0,0,0,36.051-7.25a5.373,5.373,0,0,0-.874,3.308v.395A5.266,5.266,0,0,0,36.045-.3,2.933,2.933,0,0,0,38.525.838ZM48.844-3.333,47.537-1.969V2.314H45.451V-15h2.085V-4.528l1.116-1.341,3.8-4.013h2.536l-4.746,5.1,5.3,7.1H53.094ZM61.53.838A3,3,0,0,0,63.48.161,2.379,2.379,0,0,0,64.4-1.53h1.973a3.782,3.782,0,0,1-.721,2,4.751,4.751,0,0,1-1.775,1.51,5.123,5.123,0,0,1-2.35.564A5.024,5.024,0,0,1,57.568.877,6.622,6.622,0,0,1,56.1-3.671v-.349a7.343,7.343,0,0,1,.654-3.168,4.98,4.98,0,0,1,1.877-2.153,5.331,5.331,0,0,1,2.891-.767,4.892,4.892,0,0,1,3.41,1.229,4.391,4.391,0,0,1,1.448,3.19H64.4a2.874,2.874,0,0,0-.9-1.944,2.788,2.788,0,0,0-1.99-.761A2.919,2.919,0,0,0,59.056-7.25a5.373,5.373,0,0,0-.874,3.308v.395A5.266,5.266,0,0,0,59.05-.3,2.933,2.933,0,0,0,61.53.838Zm9-9.243a4.434,4.434,0,0,1,3.607-1.7q3.866,0,3.9,4.362v8.06H75.952V-5.757a2.808,2.808,0,0,0-.6-1.95,2.417,2.417,0,0,0-1.843-.631,3.01,3.01,0,0,0-1.781.541,3.674,3.674,0,0,0-1.195,1.42V2.314H68.445V-15H70.53ZM88.413,2.314a4.38,4.38,0,0,1-.293-1.285,4.653,4.653,0,0,1-3.472,1.51,4.305,4.305,0,0,1-2.959-1.02,3.3,3.3,0,0,1-1.155-2.587,3.448,3.448,0,0,1,1.448-2.959A6.829,6.829,0,0,1,86.057-5.08h2.029v-.958a2.342,2.342,0,0,0-.654-1.742A2.628,2.628,0,0,0,85.5-8.428a3.041,3.041,0,0,0-1.871.564A1.661,1.661,0,0,0,82.878-6.5h-2.1a2.878,2.878,0,0,1,.648-1.764,4.424,4.424,0,0,1,1.758-1.347,5.916,5.916,0,0,1,2.44-.5,4.822,4.822,0,0,1,3.3,1.054,3.8,3.8,0,0,1,1.24,2.9V-.538A6.863,6.863,0,0,0,90.6,2.134v.18ZM84.952.725a3.665,3.665,0,0,0,1.86-.507A3.068,3.068,0,0,0,88.086-1.1V-3.6H86.452q-3.833,0-3.833,2.243A1.9,1.9,0,0,0,83.273.173,2.513,2.513,0,0,0,84.952.725ZM95.429,2.314H93.344v-12.2h2.085ZM93.175-13.118a1.245,1.245,0,0,1,.31-.857,1.164,1.164,0,0,1,.919-.349,1.182,1.182,0,0,1,.924.349,1.232,1.232,0,0,1,.316.857,1.191,1.191,0,0,1-.316.845,1.2,1.2,0,0,1-.924.338,1.185,1.185,0,0,1-.919-.338A1.2,1.2,0,0,1,93.175-13.118Zm7.287,3.235.068,1.533a4.445,4.445,0,0,1,3.652-1.758q3.866,0,3.9,4.362v8.06H106V-5.757a2.808,2.808,0,0,0-.6-1.95,2.417,2.417,0,0,0-1.843-.631,3.01,3.01,0,0,0-1.781.541,3.674,3.674,0,0,0-1.195,1.42V2.314H98.489v-12.2Zm16.253,12.2V-14.1h4.633a7.458,7.458,0,0,1,3.787.947,6.4,6.4,0,0,1,2.542,2.694,8.769,8.769,0,0,1,.907,4.013V-5.4a8.8,8.8,0,0,1-.9,4.069,6.3,6.3,0,0,1-2.559,2.683,7.933,7.933,0,0,1-3.872.958Zm2.164-14.643V.545h2.277a4.954,4.954,0,0,0,3.895-1.557,6.433,6.433,0,0,0,1.392-4.434v-.959a6.535,6.535,0,0,0-1.313-4.349,4.673,4.673,0,0,0-3.726-1.574ZM136.311,2.54A5.329,5.329,0,0,1,132.275.911a6.046,6.046,0,0,1-1.556-4.357v-.383a7.319,7.319,0,0,1,.693-3.241A5.408,5.408,0,0,1,133.352-9.3a4.875,4.875,0,0,1,2.7-.806,4.568,4.568,0,0,1,3.7,1.567,6.784,6.784,0,0,1,1.319,4.486v.868H132.8a4.335,4.335,0,0,0,1.054,2.914,3.313,3.313,0,0,0,2.564,1.11,3.632,3.632,0,0,0,1.871-.451,4.7,4.7,0,0,0,1.341-1.195l1.274.992A5.122,5.122,0,0,1,136.311,2.54Zm-.259-10.934a2.782,2.782,0,0,0-2.119.919,4.466,4.466,0,0,0-1.06,2.576h6.11v-.158a3.972,3.972,0,0,0-.857-2.463A2.619,2.619,0,0,0,136.051-8.394ZM147.08-.515,150.1-9.882h2.13l-4.374,12.2h-1.589l-4.419-12.2h2.13Zm11.8,3.055A5.329,5.329,0,0,1,154.841.911a6.046,6.046,0,0,1-1.556-4.357v-.383a7.319,7.319,0,0,1,.693-3.241A5.408,5.408,0,0,1,155.917-9.3a4.875,4.875,0,0,1,2.7-.806,4.568,4.568,0,0,1,3.7,1.567,6.784,6.784,0,0,1,1.319,4.486v.868H155.37a4.335,4.335,0,0,0,1.054,2.914,3.313,3.313,0,0,0,2.564,1.11A3.632,3.632,0,0,0,160.86.387,4.7,4.7,0,0,0,162.2-.808l1.274.992A5.122,5.122,0,0,1,158.876,2.54Zm-.259-10.934a2.782,2.782,0,0,0-2.119.919,4.466,4.466,0,0,0-1.06,2.576h6.11v-.158a3.972,3.972,0,0,0-.857-2.463A2.619,2.619,0,0,0,158.617-8.394Zm9.417,10.709h-2.085V-15h2.085ZM170.541-3.9a7.2,7.2,0,0,1,.7-3.224,5.256,5.256,0,0,1,1.961-2.209,5.339,5.339,0,0,1,2.869-.778,5.144,5.144,0,0,1,4.03,1.725A6.635,6.635,0,0,1,181.644-3.8v.147a7.267,7.267,0,0,1-.682,3.2,5.178,5.178,0,0,1-1.95,2.2,5.4,5.4,0,0,1-2.914.789A5.131,5.131,0,0,1,172.08.815a6.6,6.6,0,0,1-1.539-4.565Zm2.1.248a5.218,5.218,0,0,0,.941,3.258A3.012,3.012,0,0,0,176.1.838a2.994,2.994,0,0,0,2.525-1.246,5.706,5.706,0,0,0,.936-3.489,5.209,5.209,0,0,0-.952-3.252,3.028,3.028,0,0,0-2.531-1.246,2.994,2.994,0,0,0-2.491,1.229A5.663,5.663,0,0,0,172.638-3.649Zm21.648,0A7.3,7.3,0,0,1,193.012.838a4.082,4.082,0,0,1-3.449,1.7,4.473,4.473,0,0,1-3.494-1.409V7h-2.085V-9.882h1.905l.1,1.353a4.3,4.3,0,0,1,3.54-1.578,4.159,4.159,0,0,1,3.477,1.657,7.383,7.383,0,0,1,1.279,4.61ZM192.2-3.885a5.389,5.389,0,0,0-.879-3.258,2.832,2.832,0,0,0-2.412-1.195,3.066,3.066,0,0,0-2.841,1.68V-.831A3.072,3.072,0,0,0,188.931.838a2.819,2.819,0,0,0,2.384-1.189A5.882,5.882,0,0,0,192.2-3.885Zm6.419-6,.056,1.353a4.5,4.5,0,0,1,3.618-1.578,3.487,3.487,0,0,1,3.483,1.961,4.62,4.62,0,0,1,1.584-1.42,4.678,4.678,0,0,1,2.305-.541q4.013,0,4.081,4.25V2.314h-2.085V-5.734a2.8,2.8,0,0,0-.6-1.956,2.631,2.631,0,0,0-2.006-.648,2.765,2.765,0,0,0-1.928.693,2.812,2.812,0,0,0-.891,1.866V2.314h-2.1V-5.678a2.327,2.327,0,0,0-2.6-2.66,2.79,2.79,0,0,0-2.807,1.747V2.314h-2.085v-12.2ZM221.675,2.54A5.329,5.329,0,0,1,217.64.911a6.046,6.046,0,0,1-1.556-4.357v-.383a7.319,7.319,0,0,1,.693-3.241A5.408,5.408,0,0,1,218.716-9.3a4.875,4.875,0,0,1,2.7-.806,4.568,4.568,0,0,1,3.7,1.567,6.784,6.784,0,0,1,1.319,4.486v.868H218.17a4.336,4.336,0,0,0,1.054,2.914,3.313,3.313,0,0,0,2.564,1.11,3.632,3.632,0,0,0,1.871-.451A4.7,4.7,0,0,0,225-.808l1.274.992A5.122,5.122,0,0,1,221.675,2.54Zm-.259-10.934a2.782,2.782,0,0,0-2.119.919,4.465,4.465,0,0,0-1.06,2.576h6.11v-.158a3.972,3.972,0,0,0-.857-2.463A2.619,2.619,0,0,0,221.416-8.394Zm9.124-1.488.068,1.533a4.445,4.445,0,0,1,3.652-1.758q3.866,0,3.9,4.362v8.06h-2.085V-5.757a2.808,2.808,0,0,0-.6-1.95,2.417,2.417,0,0,0-1.843-.631,3.01,3.01,0,0,0-1.781.541,3.674,3.674,0,0,0-1.195,1.42V2.314h-2.085v-12.2Zm13.317-2.953v2.953h2.277V-8.27h-2.277V-.7a1.693,1.693,0,0,0,.3,1.1A1.281,1.281,0,0,0,245.2.77a5.049,5.049,0,0,0,.992-.135V2.316a6.081,6.081,0,0,1-1.6.224,2.6,2.6,0,0,1-2.108-.845,3.632,3.632,0,0,1-.71-2.4V-8.27h-2.221V-9.882h2.221v-2.953Zm9.433,10.743a3.849,3.849,0,0,1,.659-2.176A10.049,10.049,0,0,1,256.47-6.58,10.879,10.879,0,0,1,255-8.721a3.844,3.844,0,0,1-.372-1.612,3.869,3.869,0,0,1,1.1-2.931,4.151,4.151,0,0,1,3-1.06,4.041,4.041,0,0,1,2.8.986,3.19,3.19,0,0,1,1.1,2.486,3.507,3.507,0,0,1-.5,1.832,6.519,6.519,0,0,1-1.753,1.764l-1.206.891L262.827-2a6.92,6.92,0,0,0,.767-3.258h1.882A7.859,7.859,0,0,1,264.09-.493l2.345,2.807h-2.5l-1.093-1.3a5.715,5.715,0,0,1-1.956,1.133,6.922,6.922,0,0,1-2.283.389,5.64,5.64,0,0,1-3.855-1.274A4.249,4.249,0,0,1,253.291-2.093ZM258.6.838a4.389,4.389,0,0,0,3.032-1.263l-4-4.791-.372.271a3.753,3.753,0,0,0-1.882,2.852,2.768,2.768,0,0,0,.862,2.13A3.336,3.336,0,0,0,258.6.838ZM256.718-10.4a4.735,4.735,0,0,0,1.33,2.705l1.33-.936a3.539,3.539,0,0,0,1.048-1.031,2.35,2.35,0,0,0,.282-1.189,1.612,1.612,0,0,0-.564-1.257,2.057,2.057,0,0,0-1.42-.5,1.838,1.838,0,0,0-1.465.626A2.334,2.334,0,0,0,256.718-10.4Zm28.923,7.507a6.038,6.038,0,0,1-1.922,4.019,6.3,6.3,0,0,1-4.3,1.415A5.783,5.783,0,0,1,274.757.454,8.39,8.39,0,0,1,273-5.125V-6.7a9.351,9.351,0,0,1,.817-4.024,6.1,6.1,0,0,1,2.316-2.666,6.45,6.45,0,0,1,3.472-.93,5.931,5.931,0,0,1,4.193,1.46,6.111,6.111,0,0,1,1.837,4.041h-2.176a4.716,4.716,0,0,0-1.223-2.849,3.7,3.7,0,0,0-2.632-.882,3.872,3.872,0,0,0-3.252,1.534,7.044,7.044,0,0,0-1.178,4.366v1.591A7.241,7.241,0,0,0,276.3-.809,3.606,3.606,0,0,0,279.418.77a4.165,4.165,0,0,0,2.767-.817,4.535,4.535,0,0,0,1.279-2.846Zm1.8-1a7.2,7.2,0,0,1,.7-3.224A5.256,5.256,0,0,1,290.1-9.33a5.339,5.339,0,0,1,2.869-.778A5.144,5.144,0,0,1,297-8.383,6.636,6.636,0,0,1,298.541-3.8v.147a7.266,7.266,0,0,1-.682,3.2,5.178,5.178,0,0,1-1.95,2.2A5.4,5.4,0,0,1,293,2.54,5.131,5.131,0,0,1,288.976.815a6.6,6.6,0,0,1-1.539-4.565Zm2.1.248a5.218,5.218,0,0,0,.941,3.258A3.012,3.012,0,0,0,293,.838,2.994,2.994,0,0,0,295.52-.408a5.706,5.706,0,0,0,.936-3.489,5.209,5.209,0,0,0-.953-3.252,3.028,3.028,0,0,0-2.531-1.246,2.994,2.994,0,0,0-2.491,1.229A5.663,5.663,0,0,0,289.534-3.649Zm13.317-6.234.068,1.533a4.445,4.445,0,0,1,3.652-1.758q3.866,0,3.9,4.362v8.06h-2.085V-5.757a2.808,2.808,0,0,0-.6-1.95,2.417,2.417,0,0,0-1.843-.631,3.01,3.01,0,0,0-1.781.541,3.674,3.674,0,0,0-1.195,1.42V2.314h-2.085v-12.2Zm17.59,8.961a1.535,1.535,0,0,0-.637-1.313,6.131,6.131,0,0,0-2.221-.806,10.5,10.5,0,0,1-2.514-.812,3.577,3.577,0,0,1-1.375-1.127,2.7,2.7,0,0,1-.445-1.556,3.164,3.164,0,0,1,1.268-2.536,4.953,4.953,0,0,1,3.241-1.037,5.1,5.1,0,0,1,3.365,1.071A3.4,3.4,0,0,1,322.414-6.3h-2.1a1.883,1.883,0,0,0-.727-1.477,2.724,2.724,0,0,0-1.832-.62,2.851,2.851,0,0,0-1.781.5,1.561,1.561,0,0,0-.643,1.3,1.265,1.265,0,0,0,.6,1.139,7.35,7.35,0,0,0,2.159.733,11.249,11.249,0,0,1,2.531.834,3.692,3.692,0,0,1,1.437,1.167,2.869,2.869,0,0,1,.468,1.663,3.121,3.121,0,0,1-1.308,2.621,5.485,5.485,0,0,1-3.393.986,6.142,6.142,0,0,1-2.593-.519A4.217,4.217,0,0,1,313.47.573a3.491,3.491,0,0,1-.637-2.012h2.085a2.159,2.159,0,0,0,.84,1.663,3.258,3.258,0,0,0,2.068.614,3.363,3.363,0,0,0,1.9-.479A1.472,1.472,0,0,0,320.441-.921ZM332.5,1.108a4.43,4.43,0,0,1-3.573,1.432,3.792,3.792,0,0,1-2.97-1.133,4.9,4.9,0,0,1-1.031-3.354V-9.882h2.085V-2q0,2.773,2.254,2.773a3.122,3.122,0,0,0,3.179-1.781V-9.882h2.085v12.2h-1.984Zm7.185,1.206H337.6V-15h2.085Zm5.889-15.15v2.953h2.277V-8.27h-2.277V-.7a1.693,1.693,0,0,0,.3,1.1,1.281,1.281,0,0,0,1.037.367A5.048,5.048,0,0,0,347.9.635V2.316a6.081,6.081,0,0,1-1.6.224,2.6,2.6,0,0,1-2.108-.845,3.632,3.632,0,0,1-.71-2.4V-8.27h-2.221V-9.882h2.221v-2.953Zm6.7,15.15h-2.085v-12.2h2.085Zm-2.254-15.432a1.245,1.245,0,0,1,.31-.857,1.164,1.164,0,0,1,.919-.349,1.182,1.182,0,0,1,.924.349,1.232,1.232,0,0,1,.316.857,1.191,1.191,0,0,1-.316.845,1.2,1.2,0,0,1-.924.338,1.185,1.185,0,0,1-.919-.338A1.2,1.2,0,0,1,350.017-13.118ZM357.3-9.882l.068,1.533a4.445,4.445,0,0,1,3.652-1.758q3.866,0,3.9,4.362v8.06h-2.085V-5.757a2.808,2.808,0,0,0-.6-1.95,2.417,2.417,0,0,0-1.843-.631,3.01,3.01,0,0,0-1.781.541,3.674,3.674,0,0,0-1.195,1.42V2.314h-2.085v-12.2Zm9.992,6a7.168,7.168,0,0,1,1.319-4.537,4.218,4.218,0,0,1,3.494-1.685,4.2,4.2,0,0,1,3.483,1.578l.1-1.353h1.9v11.9a4.962,4.962,0,0,1-1.4,3.731,5.179,5.179,0,0,1-3.771,1.364,6.273,6.273,0,0,1-2.581-.564,4.444,4.444,0,0,1-1.928-1.544L369,3.757a4.078,4.078,0,0,0,3.28,1.657,3.2,3.2,0,0,0,2.373-.857,3.275,3.275,0,0,0,.851-2.412V1.1a4.286,4.286,0,0,1-3.416,1.443A4.166,4.166,0,0,1,368.62.815,7.537,7.537,0,0,1,367.3-3.885Zm2.1.237a5.468,5.468,0,0,0,.845,3.241A2.747,2.747,0,0,0,372.6.77a3.055,3.055,0,0,0,2.9-1.792V-6.591a3.09,3.09,0,0,0-2.874-1.747,2.772,2.772,0,0,0-2.378,1.184A5.956,5.956,0,0,0,369.392-3.649Z" transform="translate(955.756 412.617)" fill="#832df4"/>
        <g id="Hhack_line" data-name="Hhack line" transform="translate(719.305 191)">
          <path id="Path_151" data-name="Path 151" d="M-76.855,85.359V-62.781l18.521-3.054v51.489a52.628,52.628,0,0,1,10.042-2.727,63.018,63.018,0,0,1,10.934-.982q11.827,0,19.749,3.382A30.676,30.676,0,0,1-5-5.183,38.027,38.027,0,0,1,1.693,9.435,81.712,81.712,0,0,1,3.7,28.2V85.359H-14.6V32.125q0-18.763-5.356-26.508T-39.143-2.128a52.414,52.414,0,0,0-11.269,1.2,45.082,45.082,0,0,0-7.922,2.291v84ZM57.927,72.487q6.918,0,12.385-.436t9.037-1.091V40.852a53.42,53.42,0,0,0-8.591-1.745,82.04,82.04,0,0,0-10.6-.655,65.244,65.244,0,0,0-10.042.764,28.268,28.268,0,0,0-8.7,2.727,18.6,18.6,0,0,0-6.248,5.127,12.6,12.6,0,0,0-2.455,7.963q0,9.818,6.806,13.636T57.927,72.487Zm-1.785-90.76q11.6,0,19.525,2.836A33.315,33.315,0,0,1,88.5-7.583,27.826,27.826,0,0,1,95.415,4.635a58.311,58.311,0,0,1,2.008,15.709v63.27Q90.952,84.7,80.353,86.232A152.4,152.4,0,0,1,58.6,87.759a94.818,94.818,0,0,1-16.513-1.418A43.519,43.519,0,0,1,27.8,81.323,27.656,27.656,0,0,1,17.76,71.4q-3.794-6.327-3.794-16.145,0-8.727,3.905-14.727a30.9,30.9,0,0,1,10.042-9.709,44.259,44.259,0,0,1,14.058-5.345,78.672,78.672,0,0,1,15.955-1.636,95.731,95.731,0,0,1,21.422,2.4V21.216a38.341,38.341,0,0,0-1-8.836A18.865,18.865,0,0,0,66.964-.928,31.507,31.507,0,0,0,54.579-3,93.889,93.889,0,0,0,37.843-1.692,79.5,79.5,0,0,0,26.909.926L24.677-13.91q3.793-1.745,12.608-3.054A128.49,128.49,0,0,1,56.141-18.273ZM105.68,34.961q0-13.745,4.463-23.781A45.214,45.214,0,0,1,122.416-5.4,51.207,51.207,0,0,1,140.6-15.11a75.759,75.759,0,0,1,22.2-3.164,115.551,115.551,0,0,1,15.063.982,97.279,97.279,0,0,1,15.955,3.6L189.584,1.8a64.5,64.5,0,0,0-13.5-3.382A100.2,100.2,0,0,0,163.7-2.346,54.186,54.186,0,0,0,148.525-.274,32.979,32.979,0,0,0,136.14,6.271a31.7,31.7,0,0,0-8.368,11.563,42.337,42.337,0,0,0-3.124,17.127,42.245,42.245,0,0,0,2.9,16.472,29.927,29.927,0,0,0,8.145,11.345A34.05,34.05,0,0,0,148.3,69.433a57.205,57.205,0,0,0,16.29,2.182,119.109,119.109,0,0,0,13.724-.764,71.668,71.668,0,0,0,14.393-3.382l2.678,15.054a81.663,81.663,0,0,1-15.844,4.036,118.063,118.063,0,0,1-17.406,1.2,73.494,73.494,0,0,1-22.873-3.382,50.465,50.465,0,0,1-17.852-9.927,43.9,43.9,0,0,1-11.6-16.472A59.584,59.584,0,0,1,105.68,34.961Zm135.9-5.236q6.025,4.363,13.612,11.018t15.062,14.29q7.476,7.636,14.17,15.6a113.217,113.217,0,0,1,10.711,14.727H273.265a107.53,107.53,0,0,0-10.488-13.854Q256.529,64.415,249.5,57.87t-14.058-12q-7.029-5.454-12.608-9.163V85.359H204.312V-62.781l18.521-3.054V26.453Q235.106,15.98,247.379,5.617a210.457,210.457,0,0,0,22.092-21.49h21.645a231.241,231.241,0,0,1-23.1,22.908Q254.52,18.816,241.578,29.725Z" transform="translate(314.227 110.114)" fill="#832df4"/>
          <g id="logo-colored-1" transform="translate(0 0)">
            <path id="Path" d="M0,63.3V275.441l32.4-19.565V44Z" transform="translate(0 -3.266)" fill="rgba(0,0,0,0)" stroke="#979797" stroke-linecap="round" stroke-linejoin="round" stroke-width="3" fill-rule="evenodd"/>
            <path id="Path-2" data-name="Path" d="M0,212.137V0L32.4,19.565V231.441Z" transform="translate(64.804 272.175) rotate(180)" fill="#fff" stroke="#000" stroke-linecap="round" stroke-linejoin="round" stroke-width="3" fill-rule="evenodd"/>
            <path id="Combined-Shape" d="M0,276.876V65L32.4,84.3V257.45l32.4,19.426v.261l-32.4,19.3Z" transform="translate(0 -4.825)" fill="#fff" stroke="#000" stroke-linecap="round" stroke-linejoin="round" stroke-width="3" fill-rule="evenodd"/>
            <path id="Combined-Shape-2" data-name="Combined-Shape" d="M109,231.441V19.3L141.4,0l32.4,19.3V231.441l-32.4-19.565Z" transform="translate(-8.091)" fill="#fff" stroke="#000" stroke-linecap="round" stroke-linejoin="round" stroke-width="3" fill-rule="evenodd"/>
            <path id="Path-3" data-name="Path" d="M0,212.137V0L32.4,19.565V231.441Z" transform="translate(133.31 250.882) rotate(180)" fill="#fff" stroke="#000" stroke-linecap="round" stroke-linejoin="round" stroke-width="3" fill-rule="evenodd"/>
            <path id="Combined-Shape-3" data-name="Combined-Shape" d="M168.238,21V233.137l-32.4,19.3V156.372L67.472,194.863,35,176.393l100.835-58.519V40.565Z" transform="translate(-2.598 -1.559)" fill="#ac82eb" stroke="#000" stroke-linecap="round" stroke-linejoin="round" stroke-width="3" fill-rule="evenodd"/>
            <path id="Combined-Shape-4" data-name="Combined-Shape" d="M133.238,0V212.137l-32.4,19.3v-96.07L32.472,173.863,0,155.393,100.835,96.875V19.565Z" transform="translate(133.238 272.175) rotate(180)" fill="#832df4" stroke="#000" stroke-linecap="round" stroke-linejoin="round" stroke-width="3" fill-rule="evenodd"/>
          </g>
        </g>
      </g>
    </g>
  </g>
</svg>
