<svg xmlns="http://www.w3.org/2000/svg" width="169.75" height="296.442" viewBox="0 0 169.75 296.442">
  <g id="Group_124" data-name="Group 124" transform="translate(-133.503 -69.978)">
    <g id="logo-colored-1" transform="translate(135.003 71.478)">
      <path id="Path" d="M0,63.425V276.89L32.6,257.2V44Z" transform="translate(0 -3.011)" fill="rgba(0,0,0,0)" fill-rule="evenodd"/>
      <path id="Path-2" data-name="Path" d="M0,213.465V0L32.6,19.688v213.2Z" transform="translate(65.209 273.879) rotate(180)" fill="#fff" fill-rule="evenodd"/>
      <path id="Path_-_Outline" data-name="Path - Outline" d="M32.6,234.39a1.5,1.5,0,0,1-.768-.211l-32.6-19.425a1.5,1.5,0,0,1-.732-1.289V0A1.5,1.5,0,0,1-.737-1.306a1.5,1.5,0,0,1,1.513.022L33.38,18.4a1.5,1.5,0,0,1,.725,1.284v213.2a1.5,1.5,0,0,1-1.5,1.5ZM1.5,212.613l29.6,17.638V20.534L1.5,2.658Z" transform="translate(65.209 273.879) rotate(180)"/>
      <path id="Combined-Shape" d="M0,278.2V65L32.6,84.425v174.23l32.6,19.548v.263L32.6,297.89Z" transform="translate(0 -4.448)" fill="#fff" fill-rule="evenodd"/>
      <path id="Combined-Shape_-_Outline" data-name="Combined-Shape - Outline" d="M32.6,299.39a1.5,1.5,0,0,1-.775-.216l-32.6-19.688A1.5,1.5,0,0,1-1.5,278.2V65a1.5,1.5,0,0,1,.759-1.3,1.5,1.5,0,0,1,1.509.016l32.6,19.425a1.5,1.5,0,0,1,.732,1.289v173.38l31.876,19.111a1.5,1.5,0,0,1,.729,1.286v.263a1.5,1.5,0,0,1-.732,1.289l-32.6,19.425A1.5,1.5,0,0,1,32.6,299.39ZM1.5,277.356l31.11,18.785,29.9-17.811L31.833,259.941a1.5,1.5,0,0,1-.729-1.286V85.278L1.5,67.64Z" transform="translate(0 -4.448)"/>
      <path id="Combined-Shape-2" data-name="Combined-Shape" d="M109,232.89V19.425L141.6,0l32.6,19.425V232.89L141.6,213.2Z" transform="translate(-7.46)" fill="#fff" fill-rule="evenodd"/>
      <path id="Combined-Shape_-_Outline-2" data-name="Combined-Shape - Outline" d="M174.209,234.39a1.5,1.5,0,0,1-.775-.216L141.6,214.955l-31.829,19.219a1.5,1.5,0,0,1-2.275-1.284V19.425a1.5,1.5,0,0,1,.732-1.289l32.6-19.425a1.5,1.5,0,0,1,1.535,0l32.6,19.425a1.5,1.5,0,0,1,.732,1.289V232.89a1.5,1.5,0,0,1-1.5,1.5ZM141.6,211.7a1.5,1.5,0,0,1,.775.216l30.329,18.314V20.277L141.6,1.746,110.5,20.277V230.232l30.329-18.314A1.5,1.5,0,0,1,141.6,211.7Z" transform="translate(-7.46)"/>
      <path id="Path-3" data-name="Path" d="M0,213.465V0L32.6,19.688v213.2Z" transform="translate(134.145 252.453) rotate(180)" fill="#fff" fill-rule="evenodd"/>
      <path id="Path_-_Outline-2" data-name="Path - Outline" d="M32.6,234.39a1.5,1.5,0,0,1-.768-.211l-32.6-19.425a1.5,1.5,0,0,1-.732-1.289V0A1.5,1.5,0,0,1-.737-1.306a1.5,1.5,0,0,1,1.513.022L33.38,18.4a1.5,1.5,0,0,1,.725,1.284v213.2a1.5,1.5,0,0,1-1.5,1.5ZM1.5,212.613l29.6,17.638V20.534L1.5,2.658Z" transform="translate(134.145 252.453) rotate(180)"/>
      <path id="Combined-Shape-3" data-name="Combined-Shape" d="M169.072,21V234.466l-32.6,19.425V157.219L67.676,195.952,35,177.366l101.467-58.885V40.688Z" transform="translate(-2.395 -1.437)" fill="#ac82eb" fill-rule="evenodd"/>
      <path id="Combined-Shape_-_Outline-3" data-name="Combined-Shape - Outline" d="M169.072,19.5a1.5,1.5,0,0,1,1.5,1.5V234.466a1.5,1.5,0,0,1-.732,1.289l-32.6,19.425a1.5,1.5,0,0,1-2.268-1.289v-94.1L68.412,197.259a1.5,1.5,0,0,1-1.478,0L34.258,178.67a1.5,1.5,0,0,1-.011-2.6l100.72-58.451V40.688a1.5,1.5,0,0,1,.725-1.284l32.6-19.688A1.5,1.5,0,0,1,169.072,19.5Zm-1.5,214.113V23.658l-29.6,17.876v76.947a1.5,1.5,0,0,1-.747,1.3L38.011,177.353l29.668,16.875,68.051-38.316a1.5,1.5,0,0,1,2.236,1.307v94.031Z" transform="translate(-2.395 -1.437)"/>
      <path id="Combined-Shape-4" data-name="Combined-Shape" d="M134.072,0V213.466l-32.6,19.425V136.219L32.676,174.952,0,156.366,101.467,97.481V19.688Z" transform="translate(134.072 273.879) rotate(180)" fill="#832df4" fill-rule="evenodd"/>
      <path id="Combined-Shape_-_Outline-4" data-name="Combined-Shape - Outline" d="M134.072-1.5a1.5,1.5,0,0,1,.737.194A1.5,1.5,0,0,1,135.572,0V213.466a1.5,1.5,0,0,1-.732,1.289l-32.6,19.425a1.5,1.5,0,0,1-2.268-1.289v-94.1L33.412,176.259a1.5,1.5,0,0,1-1.478,0L-.742,157.67a1.5,1.5,0,0,1-.758-1.3,1.5,1.5,0,0,1,.747-1.3L99.967,96.618V19.688a1.5,1.5,0,0,1,.725-1.284L133.3-1.284A1.5,1.5,0,0,1,134.072-1.5Zm-1.5,214.113V2.658l-29.6,17.876V97.481a1.5,1.5,0,0,1-.747,1.3L3.011,156.353l29.668,16.875,68.051-38.316a1.5,1.5,0,0,1,2.236,1.307v94.031Z" transform="translate(134.072 273.879) rotate(180)"/>
    </g>
  </g>
</svg>
